/* XPM */
static char *result[] = {
/* columns rows colors chars-per-pixel */
"32 160 218 2 ",
"   c #5D390E",
".  c #5C370B",
"X  c #5C3B13",
"o  c #5E3713",
"O  c #613C0D",
"+  c #643E15",
"@  c #5E4117",
"#  c #6A4315",
"$  c #6B4B16",
"%  c #64431B",
"&  c #6B4B1D",
"*  c #66471B",
"=  c #724A1D",
"-  c #72471A",
";  c #6F501A",
":  c #73531B",
">  c #6E4C29",
",  c #6A4923",
"<  c #744B23",
"1  c #7A4D25",
"2  c #724C2A",
"3  c #7B4E2A",
"4  c #734720",
"5  c #6F522C",
"6  c #6D5221",
"7  c #745324",
"8  c #7C5426",
"9  c #7C5A26",
"0  c #74542C",
"q  c #7C552C",
"w  c #765B2A",
"e  c #7D5A2C",
"r  c #775925",
"t  c #6F5735",
"y  c #745532",
"u  c #7A5632",
"i  c #755934",
"p  c #7C5C33",
"a  c #715639",
"s  c #755C3B",
"d  c #7A5E3A",
"f  c #7D602A",
"g  c #7D6136",
"h  c #76623D",
"j  c #7C633C",
"k  c #7F683F",
"l  c #745C40",
"z  c #6E6044",
"x  c #746343",
"c  c #7C6641",
"v  c #7C6A44",
"b  c #805A27",
"n  c #81552C",
"m  c #835B2D",
"M  c #885D2D",
"N  c #835227",
"B  c #825631",
"V  c #835D33",
"C  c #895E34",
"Z  c #815F3A",
"A  c #8B5F38",
"S  c #83622D",
"D  c #8B672E",
"F  c #95662C",
"G  c #836234",
"H  c #8B6434",
"J  c #846835",
"K  c #8C6A36",
"L  c #84653C",
"P  c #8B653A",
"I  c #856B3C",
"U  c #8C6B3C",
"Y  c #916534",
"T  c #926A36",
"R  c #9A6B35",
"E  c #91653A",
"W  c #936C3C",
"Q  c #996E3B",
"!  c #8D713D",
"~  c #8A713A",
"^  c #957337",
"/  c #94723D",
"(  c #9B733D",
")  c #9C7A3E",
"_  c #9B7736",
"`  c #A1753D",
"'  c #A37B3E",
"]  c #AC7C3D",
"[  c #846640",
"{  c #896741",
"}  c #846A42",
"|  c #8C6C42",
" . c #876F4A",
".. c #926D42",
"X. c #996E43",
"o. c #926E4A",
"O. c #936740",
"+. c #8D7344",
"@. c #877349",
"#. c #8C744B",
"$. c #947343",
"%. c #9A7543",
"&. c #957A45",
"*. c #9C7B44",
"=. c #93744A",
"-. c #9B754A",
";. c #957B4B",
":. c #9C7C4B",
">. c #9C7653",
",. c #957B51",
"<. c #9C7D53",
"1. c #A17741",
"2. c #A27C44",
"3. c #AA7D44",
"4. c #A37D4B",
"5. c #A97F49",
"6. c #A0764E",
"7. c #A17D53",
"8. c #9F803F",
"9. c #A3813E",
"0. c #968047",
"q. c #9E8144",
"w. c #968149",
"e. c #9D814D",
"r. c #9E884F",
"t. c #9C8252",
"y. c #9C8956",
"u. c #A48345",
"i. c #AB8446",
"p. c #A58846",
"a. c #AB8B45",
"s. c #A4834C",
"d. c #AB844C",
"f. c #A6884B",
"g. c #AB8B4C",
"h. c #B28444",
"j. c #B38B45",
"k. c #B38C4C",
"l. c #B98C4C",
"z. c #B18348",
"x. c #AF904D",
"c. c #B4934D",
"v. c #B9934D",
"b. c #B6984F",
"n. c #BB9C4C",
"m. c #B59647",
"M. c #A48452",
"N. c #AA8553",
"B. c #A48A54",
"V. c #AB8B53",
"C. c #A5845A",
"Z. c #AA855A",
"A. c #A48C59",
"S. c #AC8D5A",
"D. c #B28D52",
"F. c #B38E5B",
"G. c #AE9153",
"H. c #A6915C",
"J. c #AD925B",
"K. c #B39353",
"L. c #B99452",
"P. c #B69953",
"I. c #BB9C53",
"U. c #B3945B",
"Y. c #BB955B",
"T. c #B7995A",
"R. c #BA9B5B",
"E. c #BDA14E",
"W. c #BDA253",
"Q. c #BDA35B",
"!. c #BFA85A",
"~. c #AB8C64",
"^. c #AA8A65",
"/. c #B28D63",
"(. c #B58F66",
"). c #AE9562",
"_. c #AC956C",
"`. c #B39563",
"'. c #B99664",
"]. c #B59963",
"[. c #BB9C64",
"{. c #B5956A",
"}. c #BA966A",
"|. c #B69C6B",
" X c #BB9B6A",
".X c #BD9C72",
"XX c #B39A71",
"oX c #BFA26B",
"OX c #BBA066",
"+X c #BDA078",
"@X c #C09E56",
"#X c #C09F5B",
"$X c #C1A14F",
"%X c #C2A355",
"&X c #C8A957",
"*X c #C3A35C",
"=X c #C8A85B",
"-X c #C09D66",
";X c #C39C6D",
":X c #C49E73",
">X c #C89E74",
",X c #C4A364",
"<X c #C3A56E",
"1X c #CAA867",
"2X c #CCAB76",
"3X c #CEAC7C",
"4X c #C7A575",
"5X c #CFB079",
"6X c #D2B17D",
"7X c #D2AE7A",
"8X c #D3B184",
"9X c #D4B48C",
"0X c #DBB987",
"qX c #D4AD86",
"wX c #E2B98E",
"eX c #E4BF93",
"rX c #E1C08D",
"tX c #E7C597",
/* pixels */
"a a y i d i e { o.o.o.{ { u ! B.y.H.I ;.~ k ~ J :.;.7.{ =.u [ [ ",
"a s s d L p p { (.^.^.>.7.| =.t.A.y.k ;.+.g / ! $.$.<.L >.d u > ",
"a a i d g e 0 Z y 2 u Z >.o.s.S.y.y.~ ~ &.~ e.&.C.C.C.G | u d y ",
"a a y i p w 0 p Z B Z Z =.| =.e.H.y.k 6 w 7 G & 7 U M.| o.Z d u ",
"s d p d G p e p 2 > 0 u | | :.J.H.w.~ k ! ~ $.K H :.Z.=.{ u u y ",
"i d i g L G e V V Z L Z | K ;.A.H.0.0.H.OXJ.S.]. X}.C.| { d u u ",
"y d d L | U G G u q p 0 U L :.V.).w.8.r.r.*.~ %.-.-.....o.L u a ",
"i L U ..&.$.K G V q p p ..U q.S.J.G.0.~ ~ f.s.&.%.%...o.P u y Z ",
"u p U ;.s.:.T G V p p V p K r.J.J.G.q.~ &.s.s.%.%.=.E =...u p u ",
"p p U :.s.:.W P V e p V e I r.J.J.J.q.~ *.s.2.%.%./ P o.o.p u d ",
"p p | 4.d.4./ K G 9 V p f U r.U.U.G.u.) u.g.2.*.%./ U -...Z Z u ",
"p G $.4.N.4.%.T G m p V f U M.T.T.G.s.*.d.g.4.2.*.Q P %.=.Z Z u ",
"e G $.4.d.d.) T H n p G e ~ B.].T.G.u.u.D.g.5.2.1.Q P X.-.L Z u ",
"w K %.s.N.d.*.W K V V f V ~ B.R.T.G.u.p.D.k.5.d.4.%.P -.-.{ Z u ",
"9 K *.N.D.N.2./ K V G G S ! V.OXT.k.u.p.D.D.d.d.5.%.P %.-.L Z u ",
"n K 4.d.D.D.5.( H V m G e ! J.OXT.k.' p.K.k.d.N.d.%.P $.-.{ Z p ",
"9 H 2.N.D.z.3.Q T M H V J &.p.OXT.p.u.p.K.g.g.V.N./ K %.-...L q ",
"e Y 2.N.l.l.3.' Q D M S J &.s.].T.u.9.p.D.c.k.K.g.( K ....W P q ",
"b H 2.z.D.l.3.` Q C H V D / r.T.T.f.u.p.c.g.g.K.V.) T K U ..P q ",
"8 K 2.N.l.D.3.` ( Y H S G W *.T.K.u.9.f.V.g.D.K.N.*.T K C U P q ",
"9 H ' z.l.l.3.` ` Y C V G U &.J.K.u.u.s.g.g.V.Y.N.*.T H C P P q ",
"8 D 1.a.l.z.z.' ` Y Y C G U $.N.V.u.q.g.g.f.N.K.d.$.T K P P A n ",
"b H ' i.l.l.h.] Q Y E C G U +.M.M.q.q.f.V.p.g.F.d./ E ..E E C u ",
"b K 1.i.l.l.z.3.Q Y U H L U ..M.s.q.q.B.V.s.f.U.s./ K X.X.P V B ",
"b Y ` i.l.j.h.h.1.R A C U P U ;.*.r.s.r.U.s.M.T.4.W E %.X.P A B ",
"b Y 1.d.l.l.h.i.R R A Y { A G $.B.J.U.e.V.f.N.M.s./ E %...P B B ",
"b Y 1.z.l.h.l.3.3.` Y C P W <.'.<X<X<XG.[.`.`.N.4.W E -.O.A C B ",
"q H ) 5.l.$Xl.] R R Y M V q 7 g I f J S *.$.s.M.4.W ..%.O.A B 3 ",
"N A X.3.l.l.h.] ` R Y C H G e g w & 7 r U ~ s.s.5.W X.X.O.B B B ",
"B E X.3.5.@Xh.] 3.' R Y %.M.S.}.e.:.t.! :.Z.[.N.6...O.X.O.C B 3 ",
"B A R 1.h.l.h.] F R Y E ..$.$.:.+.! &.g K q.'.M.4...X.X.E B N 3 ",
"N A Y ` 3.] ] ` F R Y H T $.:.M.J.*.r.&.&.=.Z.M.4.W E X.E n 3 3 ",
"N N Y R ` ' ' ` M X.X.n 6.Q -.4.G.g.r.&.$.$.:.7.7.T H Q E N 1 n ",
"N N Y R ` ` ` Q X.X.E X.Z.T N.1XK.G.f.*.U U %.Z.4.X.W ( E N 1 4 ",
"N B A Y Q %.` Q Y T X.Z./.W 2.Y.G.g.g.N.4.%.Z.}.F.-.T ( E B 3 B ",
"N N N Y R %.1.%.6.6.O.V M W '.Y.*Xg.u.s.4.$...%.5.%.T H A N 4 + ",
"1 3 B C Y / %.%.-.L # O O D U.T.*Xa.u.u.4.X...%...-.$.H %.:X9XqX",
"X.>.6.6.7.F.F.F.-XU C /.N.4.U.,XI.j.i.d.5.4.C.'.'.N.T m H ..7.(.",
"6.7.>.6.5.N.S.S.(.K U 3X`.u.D.1X@XL.z.d.%.W %.-.5.T G U P < % 2 ",
"+ o o o O # $ $ 1 & K ;Xs.f.-X#X*Xn.a.i.d.u.%.K -.6.W q < u u 2 ",
"> 2 U -.M.S.N.'.'.=.Z.) &.x.R.1X=X@Xl.i.d.W 7...N.-.C H >.>.Z 2 ",
"_.7.C.s.N.U.[.2XF./ N.%.*.V.Q.=X=XI.l.p.s.( 5.E 5.-.U P o.{ 2 2 ",
"7.>.=./ *.u.s.J.s.W N./ *.k.*X,X=XI.c.u.u.$.6...C.4.O.{ O.B 4 u ",
"G p U ~ *.s.*.s.s./ s./ / i.*X1X=XI.c.u.5.%.5.U N.6.A A >.B 2 u ",
"G K :.&.u.V.k.D.d.%.N.1.' p.#X=X&XP.x.u.u.%.M.E F.4.V E %.B 3 3 ",
"e G *.2.u.K.c.D.d.2.F.D.k.p.@X@X*XP.g.u.5.*.7.E 7.N.Y E X.3 3 3 ",
"7 S *.2.g.R.L.D.i.2.F.#XL.] L.@X*XP.g.q.M.:.C.T 4.N.H W O.3 3 3 ",
"S K %._ u.R.Y.K.g.1.D.'.D.( l.L.Q.P.g.*.s.%.Z.E 4.N.H E X.B B < ",
"q P =.) 2.k.K.K.s.*.D.-XD.' g.K.L.Y.d.u.2.2.s.K 5.N.C H %.M 8 1 ",
"0 U %.%.u.g.U.D.d.) S.-XV.u.a.K.Y.Y.d.i.5.5.5.T 4.Z.M Y %.M 8 1 ",
"u U X.%.u.N.K.K.d.*.S.-XD.2.u.g.L.Y.z.i.5.5.N.T 2.5.M H -.V N 8 ",
"V U %.%.u.D.K.D.d.*.N.;XV.1.u.f.L.D.d.5.2.5.d.W 4.N.H H X.C q 8 ",
"V E =.( 5.K.K.N.s.( N.[.D.*.u.u.g.i.5.u.5.5.M.W d.Z.D H -.G 9 8 ",
"V U %.*.u.V.K.k.s.) N.[.S.*.9.*.d.u.*.u.u.u.N.W Z.Z.C E 6.K n q ",
"G | %.*.u.K.K.N.s.*.N.[.N.*.) ) 2.2.) d.d.d.d.( M.N.H T :.H p q ",
"V | =.$.s.G.K.V.N.*.S.[.S.) ) / *.) *.g.N.N.N.%.5.N.V P -.H n n ",
"V P $.:.s.x.K.G.s.&.N.[.N.) / ~ ' _ *.d.N.d.2.%.5.N.P T -.C n e ",
"G U $.:.s.G.U.S.N.*.Z.}.S.*.*.) / 2.s.2.4.D.N.H Z.4.C $.Z.E V q ",
"G U / *.f.G.U.G.N.&.s.S.M.M.[.<XU.-X-XU.`.4X[./ F.:.C P | V V C ",
"L U $.*.f.G.T.J.u.&.C.{.M.$./ &.d.u.2.4.u.d.6.K 7.N.~.S.-.H L e ",
"| U / e.f.K.K.U.B.:.S.{.t.K S f T S D W / K K H N.6.M.Z.>.E V e ",
"| | / :.g.J.U.U.S.:.M.~.<.:.r.s.2.2.s.u.*.4.M.4.s.8 = V ..U q L ",
"=.../ q.V.G.G.G.s.$.M.(.Z.:.&./ s.s.V.d.*.4.s.%.$.K P ..7.-.q V ",
"=...$.s.g.G.U.U.U.:.:.S.M.*.q.4.s.2.d.N.u.s.4.%.4.;X4X-...o.q V ",
"-.$.%.*.g.J.K.U.B.M.:.V.u.f.u.8.p.N.D.d.N.d.2./ N.s.W G U U L G ",
"-.W / s.V.K.J.J.s.e.q.S.s.g.p.p.i.z.D.D.g.d.2.( s.4.! P | U G V ",
":.%./ :.V.U.J.J.s.:.:.J.p.G.a.a.k.D.D.k.D.N.s./ u.:.! K ..U G G ",
"7.-.$.*.V.G.U.S.t.e.q.S.f.K.x.k.c.L.K.K.K.k.2._ 4.4.W K $.U C L ",
":...$.4.S.T.J.A.e.e.:.J.f.K.c.b.c.L.L.K.K.V.u./ 4.:.U K ..U P | ",
"U U W M.U.].J.B.e.:.:.J.s.c.c.b.I.L.L.I.L.K.5./ s.:.W | $.| P | ",
"J K $.s.U.J.J.M.:.&.:.V.u.K.v.b.I.I.I.I.R.K.u./ s.*.$...-.| P ..",
"$.| +.e.B.J.H.A.;.;.:.S.s.c.b.n.%X%X%XR.R.K.s./ 4.&.$.=.:.| P o.",
"| -.+.t.J.B.H.A.;.=.&.B.s.c.b.I.%XW.W.T.R.T.g.&.s.$.:.U <.$.| %.",
"I ;.$.B.`.J.A.<.=.$.=.V.p.K.b.W.%X*XW.Q.Q.P.N.*.M.*.4.$.7.$.U $.",
"=.<.+.&.B.A.A.t.#.+.$.S.g.P.b.n.%X%X!.W.Q.T.V.s.:.$.:.$.:.%.-.:.",
"| t.t.t.A.).A.#.;.+.! N.g.P.b.n.!.!.W.W.R.T.S.q.N.:.M.$.%.:.&./ ",
"} ;.t.;.t.A.t.,.t.+.U M.f.b.n.E.!.Q.!.Q.Q.T.V.s.N.&.N./ *.:.u./ ",
"+.t.y.t.y.y.t.A.,.+.I B.g.K.n.E.W.!.!.Q.Q.T.G.s.:.=.S.( / :.d./ ",
"+.;.).|.|.).,.,.=.} U N.g.b.b.%XW.!.!.Q.OXT.S.t.Z.U.2XU.*.*.d.^ ",
"+.} +.I I @.j #.| j J M.f.c.m.W.E.!.Q.Q.T.T.V.s.s.U.rX4XU.].4XT.",
"p e 0 0 , * * * > X g B.g.c.n.$XW.W.!.W.Q.J.V.M.r.q G S G / e K ",
"C.C.C.M.>.:.,.t.,.i $.V.f.c.n.n.E.W.W.W.P.G.G.M.&.K :.$.K / S K ",
"/./.~.S.A.A.~.~.y.I $.s.i.c.$Xn.E.W.W.Q.T.G.G.g.|.'.3X2X2X8X6X0X",
"-.:.:.:.;.&.;.:.,.d $.s.u.c.$Xn.E.W.W.P.P.G.V.B.Z.%.:.:.:.Z.M.M.",
";.:.:.:.q.*.:.:.$.G q.V.i.m.n.m.W.W.E.W.P.G.N.B. X:.=.:.:.s.:.:.",
":.M.B.B.M.s.r.s.;.U s.g.9.j.n.E.E.E.W.P.P.G.g.B.s.U U :.B.:.s.B.",
":.s.N.G.g.f.s.r.e.K u.p.9.9.$XE.E.E.E.P.K.x.V.f.M.:.;.B.M.:.M.*.",
"s.f.G.K.G.G.g.B.s./ p.a.9.E.&X9.E.E.E.P.P.G.N.s.J.M.*.e.t.M.C.&.",
"*.r.V.P.T.K.p.g.g.*.2.u.a.j.n.E.E.W.n.P.c.G.V.r.N.Z.t.A.C.r.A.w.",
"q.u.x.I.T.K.g.g.s.*.*.s.p.j.m.n.E.E.W.b.P.G.V.s.A.A.M.A.B.t.B.w.",
"q.p.K.T.I.T.D.k.d.) ) i.p.m.m.E.E.W.W.b.P.G.V.r.M.B.B.A.B.M.H.w.",
"q.p.c.T.I.I.c.K.u.) 1.u.9.9.m.n.n.E.W.I.P.G.V.r.e.t.B.J.A.y.y.0.",
"8.p.G.P.T.v.c.c.p.) 1.u.u.a.b.n.E.W.W.I.P.G.G.s.e.e.A.J.A.B.e.0.",
"8.q.x.b.v.c.k.z.d.1.1.i.i.9.x.E.W.E.I.n.P.K.V.M.M.t.J.).A.y.0.&.",
"0.p.G.c.c.c.k.z.i.` 5.p.u.p.c.E.%XW.W.b.G.G.J.f.B.t.).).B.y.w.;.",
"8.p.G.x.c.b.k.d.i.2.2.p.i.p.c.b.%X%XE.b.G.P.V.B.y.e.).).H.H.e.e.",
"q.q.k.K.k.j.c.j.i._ 5.g.9.m.m.n.%X&X$Xv.c.J.V.f.M.w.).|.).A.H.0.",
"*.q.g.k.v.l.l.g.p.' z.z.9.a.m.n.E.%X%Xb.c.K.V.N.M.t.).OXA.y.B.0.",
"u.' g.L.v.v.v.a.i.' l.i.i.a.m.E.$X%X@Xv.k.G.J.B.M.y.`.|.H.B.r.0.",
"2.2.a.L.v.L.L.z.z.2.d.2.u.a.c.P.$X%X@Xb.a.a.V.M.M.B.).].H.H.r.0.",
"9.) i.c.l.v.v.l.k.2.5.^ p.f.c.b.n.@X%Xk.p.g.f.s.s.H.|.).H.B.r.0.",
"u.' i.l.m.l.v.j.l.2.2.H d.g.x.G.n.@XT.k.u.g.s.*.r.J.].).J.H.r.0.",
"' ' j.j.a.j.v.l.k.d.d.H g.u.f.g.c.I.c.a.p.V.s.&.:.J.].J.J.J.r.0.",
"' u.j.j.9.j.v.l.z.p.N.K N.e.u.f.k.b.c.u.f.K.g./ :.J.].).].H.f.0.",
"1.' 9.z.j.j.v.@Xl.5.F.F.U.U.*.u.g.G.g.p.u.s.p.w.q.J.].].J.J.r.w.",
"1.2.] a.j.j.j.L.i.2.F.;X4XU.M.f.R.1X1XR.J.T.oX<X`.U.J.|.OXB.q.0.",
"1.1.' i.j.j.j.k.#Xz.Q H G G ! *.g.T.OXR.T.].<X5XN.G.J.`.T.J.w.q.",
"%.` ' i.j.j.j.j.' 2.S : ; : f $ ; : : : : : ; $ / A.|.T.J.J.B.&.",
"Q Q 1.3.h.h.h.j.i.N.( &.d.M.J.e.V.J.U.U.J.T.U.T.r.T. XU.J.J.t.~ ",
"X.Q X.3.z.h.i.j.3.2.N.7X0X4XT.S.V.].,X<X4X2X0XtX4X`.G.U.].V.*.~ ",
"E R X.3.z.h.9.i.i.( %.*.:.e.:.B.q.g.S.N.s.f.U.OXOXG.B.U.[.B./ ~ ",
"E E ` 3.h.i.h.i.i.5.u.J S s.r.f.J.J.S.J.V.V.V.B.f.V.U.].J.q./ J ",
"P C Q 4.z.h.5.z.2.N.1.T / 2.u.u.u.g.R.G.V.g.s.Y.U.N.S.'.Z.:.$.J ",
"C P R 2.d.z.5.z.5.z.%.Y T ) s.k./ u.K.g.f.g.f.T.].J.F.'.S.:.| K ",
"C Y R 1.3.5.5.z.z.N.%.Y _ 2.g.b._ p.K.x.f.p.u.U.R.D.U.'.Z.:.T G ",
"C E T ` 2.5.5.z.5.N.4.( 1.u.f.a.) p.I.K.p.p.q.U.U.S.V.U.M.:.W G ",
"C H T %.1.3.5.5.3.7.5.6.5.p.i.k._ p.P.x.p.p.u.U.T.N.N.F.s.*.K G ",
"M H R ( ` 2.3.d.5.5.1.1.5.p.a.b.a.m.W.c.a.f.u.P.[.J.K.U.M.$.K S ",
"n A W Q ` 2.5.5.5.5.1.%.2.p.k.I.W.!.*Xc.x.a.u.G.[.K.J.S.u./ K S ",
"n H R ( ( 1.3.4.4.4.-.1.i.g.c.I.W.W.W.x.g.g.u.G.T.V.N.V.e./ K S ",
"M C T Q %.2.5.4.4.4.( ( s.c.n.%XW.!.%Xb.a.p.p.V.U.U.s.N.s.~ K S ",
"M C R W ( *.4.2.2.6.$.( p.k.v.%X%X&XW.P.m.p.f.V.'.F.M.N.s./ K S ",
"n C Y T ( %.*.*.*.4.( ( p.c.b.%X&X%X%XI.K.g.f.d.S.F.M.M.s./ K f ",
"n H T W / %.*.%.:.&.$.) k.L.@X%X&X&X%XI.P.K.B.s.M.V.7.M.:.U K S ",
"M H T W ( ( &.&.:.-./ *.k.@X%X&X&X&X!.I.P.K.M.s.M.Z.7.M.:.U K V ",
"n H T W W ( &.%.&.&./ *.K.@X%X&X&X%X!.I.P.V.s.4.7.Z.M.7.-.| K e ",
"m M Y T W ( %.$.=.$./ *.D.I.%X%X%X%XQ.T.K.g.s.:.=.M.<.<.-.| U p ",
"m M K K W / %.$.$.$./ *.K.@X%X%X%X*X%XI.K.s.s.:.U :.=.-.$.U K V ",
"N M C E E ....$.| :./ ^ x.%XI.%X*X,Xx.^ 9 r w e & 6 <.M.=.L P L ",
"b b C P o.| ..o...-./ / x.I.I.n.R.R.T.T.<X<XOX|.|.I | $.>.| L p ",
"b b M P ..O.| ....=./ _ p.I.n.I.R.P.P.OX<X].M.t.|.+.| =.-.{ H u ",
"b 9 m P U U o.o.| +.W / u.k.v.L.g.K.V.f.f.&.! +.| g >.=.| { P p ",
"8 8 m G K U { ..U P U / 1.a.K.L.x.K.N.*.&.:.;.;.} g =.| | { | p ",
"9 b m G P L L | { G U &.*.p.D.k.K.U.f.! &.e.;.! +.w +.=.o.G Z p ",
"b 9 e G L L L | L G $.M.s.u.g.g.f.B.u.*.r.e.;.+.j w #.;.#.p Z V ",
"e e e G G L L U { G %.F.C.s.d.u.u.N.B.M.e.+.I +.| g =.L L | | p ",
"f e V g G k [ L i I | <.&./ Y g.S *.B.s.;.&.+.| | } } | { [ G p ",
"p p p g g L L [ +.L 7 G J Q / d.S e.S.t.;.;.I L } | } } } { Z V ",
"p i p d j k [ [ G L U '.3X7XN.*.G q.A.t.:.+.I g } } } } { L j p ",
"w i d d d g j L d L +.|.6X0XF.*.K :.<.;.,.#.k h } } } } } [ G p ",
"i i a d d d c c k | G U %.S.u.4.$.:.;.;.&.} j j } } } } } L g p ",
"a d s s c d d L i +.| ! W M.s.4.M.B.:.=.=.+.j k } } } [ [ L G p ",
"s s l d x h h j g +.U J K N.N.s.S.B.;.+.#.} g j } v } L { k g d ",
"l l l l d h c j g #.J g U N.s.%.N.t.+.+.&.} h j L L v } } [ g g ",
"x x l h s h x j s #. .j ! s.s.2.B.s.+.&.@.v v j k k L k k j j h ",
"z z x s h d d d x #. .d | M.N.u.d.s.+.&.@.v v h  .v j k [ } v h ",
"z z x j h d c d t } } c =.C.s.1.g.r.+.+.@.k v x  .v L L j j h h ",
"x x x d d V d Z y v } } =.B.s.*.d.u.$.+.@.v v x } } } } j h j x ",
"c c j d V G Z G d  . .G | :.s.4.g.f.+.+.@.k v h c c L L L k k k ",
"i i p p e u 0 p y [ [ j +.:.4.2.M.p.+.&.@.h v h } L d d I k h t ",
"} I L H H H P L L | { j +.M.4.%.g.s.+.+.@.h v h }  .| | g g j v ",
"+X.X.X;X;X;X:X:XXX~.#.d U <.5.4.N.s.&.+.} h v j j #.C.<.L k ,._.",
"`.|.'.`.(.F.'.;X}.^.} d | :.s.*.g.f.;.U } v h j }  .M.{.`.C.^.XX",
"0 < - # 1 1 = = + > 0 d | :.M.2.d.M.&.+.} j h j } 6   o X + X X ",
", %   O - = + + , % > g L -.M.4.N.s.&.| } k s d | { -.C.C.^.A.>.",
"qX9X0X0XwXwXwXeX<.p i d G -.N.1.V.N.&.I v k i h > :.9XtXeXeXtXqX",
"{..X:X:X>X:X:XqX<.y y d L 7.d.4.D.N.$.I k j s i p =.Z.Z.-.7.M.=.",
"y a 0 0 B u q p o.> p d P :.4.N.D.f.$.J k j i d { -.$.e 1 9 p 0 ",
"s g p w C V V V o.y c p G ..W V.F.N.$.k k h p d u >.-.C C G p G ",
"y s i u p 0 u Z o.y p y G ..D s.V.s.! G k h s d L 7.-.M P G q G "
};
