/* XPM */
static char *result[] = {
/* columns rows colors chars-per-pixel */
"32 160 130 2 ",
"   c #000407",
".  c #020609",
"X  c #05090C",
"o  c #101417",
"O  c #12151B",
"+  c #16191E",
"@  c #181C1E",
"#  c #171B22",
"$  c #1A1D23",
"%  c #1C2125",
"&  c #1E2329",
"*  c #222326",
"=  c #23262B",
"-  c #262A2D",
";  c #282C2F",
":  c #272C30",
">  c #2B2E32",
",  c #2C2F38",
"<  c #2D3135",
"1  c #2D3139",
"2  c #303437",
"3  c #32363A",
"4  c #353A3C",
"5  c #383B3F",
"6  c #363A42",
"7  c #3A3E42",
"8  c #3C3F48",
"9  c #3D4245",
"0  c #3E4249",
"q  c #414447",
"w  c #42464B",
"e  c #454A4D",
"r  c #494D4F",
"t  c #464C52",
"y  c #4A4E53",
"u  c #4D5155",
"i  c #4E5259",
"p  c #505457",
"a  c #52555B",
"s  c #55595D",
"d  c #595C5E",
"f  c #545760",
"g  c #565A61",
"h  c #5A5E63",
"j  c #5B5F68",
"k  c #5D6265",
"l  c #5E6369",
"z  c #616466",
"x  c #61656B",
"c  c #64696D",
"v  c #686A6D",
"b  c #636770",
"n  c #666B72",
"m  c #6A6E73",
"M  c #6B6F78",
"N  c #6C7176",
"B  c #6E7379",
"V  c #707275",
"C  c #72757C",
"Z  c #74797E",
"A  c #78797D",
"S  c #727680",
"D  c #767B81",
"F  c #7A7E84",
"G  c #7A7E88",
"H  c #7C8186",
"J  c #7E8389",
"K  c #838487",
"L  c #82858B",
"P  c #84898D",
"I  c #898B8E",
"U  c #838791",
"Y  c #868B91",
"T  c #898E93",
"R  c #8C9196",
"E  c #8E9399",
"W  c #909496",
"Q  c #949897",
"!  c #92959B",
"~  c #95999D",
"^  c #989C9F",
"/  c #969BA1",
"(  c #9A9EA2",
")  c #9EA2A5",
"_  c #9EA2A9",
"`  c #A1A5A7",
"'  c #A2A6AA",
"]  c #A5A9AD",
"[  c #A8ACAF",
"{  c #A4A7B0",
"}  c #A6ABB1",
"|  c #AAAEB3",
" . c #ACAFB8",
".. c #AEB2B6",
"X. c #AEB3B9",
"o. c #B1B4B7",
"O. c #B2B6BB",
"+. c #B5B9BD",
"@. c #B8BCBF",
"#. c #B4B7C0",
"$. c #B6BAC1",
"%. c #BABDC3",
"&. c #BDC1C5",
"*. c #BEC2C9",
"=. c #C1C3C6",
"-. c #C2C5CA",
";. c #C5C9CD",
":. c #C9CBCE",
">. c #CCD0CF",
",. c #C7CBD0",
"<. c #CACDD2",
"1. c #CDD1D5",
"2. c #CED2D9",
"3. c #D1D3D6",
"4. c #D3D8D4",
"5. c #D2D5DB",
"6. c #D5DADD",
"7. c #D9DCDE",
"8. c #D7DAE1",
"9. c #D9DEE2",
"0. c #DDE1E5",
"q. c #DFE3E8",
"w. c #E1E3E6",
"e. c #E1E5E9",
"r. c #E5EAEC",
"t. c #E7ECF0",
"y. c #EBEEF1",
"u. c #EDF2F4",
"i. c #F0F1F5",
"p. c #F6FAFE",
/* pixels */
"# - g m i f x a #.w.8.8.8.8.<.#.f 8 y b v M C x G ] { {  . .&. .",
"6 D _ E ! / E E #.w.8.8.5.2.,. .E S G U T / / L *.9.8.9.0.2.0.5.",
"C P K x D b M K *.8.8.,.8.-.*._ A v M S B D A b } -.*.<.2.*.*.*.",
"D M F D L v G C ,.8.5.,.8.*.*._ M M S S V F D b / *.-.2.2.*.2.2.",
"w m I G L V U M ,.5.8.,.w.#.%._ b M M C S A C b / *.*.2.*.*.8.*.",
"j K G m U C L G ,.8.8.,.8.#.*. .j v S V S G C b _ 5.8.5.6.6.2.&.",
"x S m S E L K C <.8.8.<.3. .*.%.j v M S G A V b { 2.2.*.2.8.5.#.",
"b G G K m G / h 2.8.5.<.<. .*.-.j v M V G G C C X.2.2.2.2.*.2.&.",
"b I M K S I U v <.5.2.8.%.%.*.#.t b n b J H j H X.6.2.*.8.2.*.#.",
"v K S K S T G b 3.8.2.8.#.%.-.#.i l H H J H n H #.6.2.2.8.2.*.#.",
"C G S A A E M v <.8.5.5.#.#.-.#.t n n H J n H n #.6.2.,.6.2.*.$.",
"S A G S A ! v M 2.8.5.,.#.#.,.#.0 n H J J n J n X.8.6.2.6.2.*.#.",
"S S G V G T x S <.8.5.-.#.#.<.#.t n n J H j J n $.6.2.2.2.2.*.X.",
"C A G V G I b G 2.5.5.#.#.*.<. .i H n J H b J H X.6.2.,.6.2.*.#.",
"M S A m K G M I <.5.2.#.#.*.3.{ t n n J H n J b X.2.2.2.2.,.*.$.",
"m A S M K S m T 2.2.2.#.#.*.5.{ i H H J H J J n X.2.2.2.2.2.*.#.",
"M A D V U C D L ,.8.*.#.*.*.2._ t H n J Z J J B X.6.2.2.2.$.*.X.",
"M S C C L V F G *.8.*.#.*.*.<.{ s n B H J J J J X.6.2.2.2.*.,.X.",
"m G M S L M L G ,.8.*.$.*.2.*.} j n H n B J J H X.2.2.2.2.*.*.$.",
"z G m D K m I F ,.8.*.*.*.2.*.{ n n H n J J J J $.2.2.2.,.$.*.$.",
"j G V K D m T G ,.2.%.*.*.2.*.#.B B S n J J J S *.8.2.2.,.$.*.*.",
"j A C L C S T G ,.,.,.*.*.2.*.#.B B H B J J J H *.8.,.2.,.$.*.*.",
"M D S L C G U S ,.,.,.%.*.2.*.#.n H H B / / J J *.8.,.2.,.$.*.*.",
"V A A G M U J S <.*.2.%.2.2.*.$.n J B B J J / J *.8.,.2.*.$.*.2.",
"V G G K V U G V *.*.*.*.8.*.*.*.M R b S T U E S *.2.2.,.*.*.,.#.",
"V G G L S I G M *.*.*.*.8.*.*.#.n J n H E Y E S *.2.2.,.*.*.,.#.",
"S G L U G I K C *.*.2.*.2.*.2.*.M J B J E T / D *.2.,.*.*.*.,.*.",
"S L U K U I G S *.*.*.*.*.*.2.$.N J C J E T E G *.2.2.*.*.*.*.*.",
"A U U L T L A S &.*.*.*.*.*.*.&.Z H H J T U E G #.2.2.%.*.,.*.,.",
"C U I L ! K S S *.*.*.2.*.*.2.X.H H J J T T E G #.2.2.%.,.2.*.,.",
"C K I L ! G A S &.*.#.2.*.*.2.X.H J J / E T T S #.2.2.#.%.2.%.2.",
"S K I K ~ G V S X.*. .2.*.*.6.} H J J / E T U S #.,.2.%.2.2.%.2.",
"S I I I ! A A V  .=.{ %.=.:.3.#.N H J J _ J J H X.0.>.$.1.;.,.,.",
"A I K I W V K V  .{  .:.@.:.,. .H J J ] } J J k X.6.*.&.,.,.1.,.",
"V I A K K v A v %.(  .=. .2.8.-.n H J ) ) J J n X.6.;.&.2.,.,.*.",
"v I K I K V I h W !  .%.#.2.8.#.c J ] ] J J J s X.2.;.&.,.;.,.;.",
"h K A K A A K y A  .O.O.-.<.8.$.c J J J J J k # } &.$.$.$.$.*.*.",
"h A A K v A A r G ;.O._ %.,.8.#.l J ) J J H s - &.1.&.&.*.$.;.&.",
"z d h V d z d q A | O._ %.<.,.( s H H Z c u 9 9 +.$.} } } _ X._ ",
"q * * 5 * > + * r s m a M T E b < 9 : 4 2 : 2 t n c t i g s n s ",
"I Q ' ^ ) O.` Q b V V K G b V L J ,.,.,.6.2.2.*.8 t t M M b j f ",
"w.w.i.w.w.y.9.3.C x i x S C C V 2.u.t.q.t.0.0.2.U J J J S J J J ",
"7.3.7.:.:.:.@.o.v z r s M M C B 4.t.6.2.6.1.1.*.b i j f j b S J ",
"3.3.7.3.3.-.=.@.g z f z M m B C 2.q.6.6.0.6.9.2.j t S j b S S S ",
":.3.7.3.3.=.-.@.z h i z A D Z N ,.0.6.0.8.2.2.,.j t M j b S M M ",
":.3.7.:.3.@.=.| x h u z D D F Z 2.q.0.0.8.2.q.2.i i b j b J J J ",
":.3.w.:.>.O.-.[ g g a c D B D K ,.0.6.6.2.6.q.,.0 j b b M J b H ",
"=.3.7.=.:.O.<...s a u m H S D K ,.0.0.0.8.q.q.*.6 b j j b H S J ",
":.3.3.:.%.#.:.#.g 0 g B H n J J 6.0.0.6.2.6.r.&.0 j g l n H M H ",
":.3.:.3.%.%.-.#.j 0 g B B B J Z >.r.0.9.6.0.r.$.0 j j b j H M H ",
"=.3.3.3.#.*.*.#.i i h B n Z J H ;.0.0.9.6.q.q.X.t b j n b H M M ",
":.7.:.:.#.-.#.#.i s j B n H J J ;.r.0.4.6.q.0.X.t j j n b H H H ",
"3.3.3.:.#.*.%. .t s l B c H H H ;.r.6.4.6.0.9.X.f j f b b S J M ",
"3.3.3.%.#.*.#. .t s n n c P H H ;.r.6.2.0.6.2.X.j j f M M J H j ",
"<.:.8.#.%.*.*. .u s N k c J J H ;.r.4.2.0.6.1.X.j j f M H J H f ",
"<.=.8. .*.*.-. .s s N s N J J H ;.q.6.6.0.2.;.X.j j j J M J H f ",
"-.3.*.#.:. .=.( 8 b b b N J R Z ,.r.1.q.6.2.;.X.l i B B H H b H ",
":.3.=.%.:.#.=._ f b b M B H J D ,.q.4.q.0.1.;.$.s j B B H M M H ",
"-.:.%.%.=.#.%.) f b b M C Z H Z ,.0.6.0.0.,.>.$.i l B B J H n J ",
"=.:.%.#.%.#.#.) f b v M B H H Z ;.6.6.6.0.&.>.$.t s B B J b H J ",
"=.=.#.%.#.#. .{ f b b M A G K A ;.6.6.6.0.$.,.$.t l B B H n b J ",
"=.:.%.%.#.#. .{ f b M M A K T D &.0.6.6.6.&.,.&.i l n H H l H H ",
"=.:.%.%.#.@.{ { j M v M A G K D &.0.6.0.4.&.,.;.l j B H H j H n ",
"=.=.#.=. .#.{ { b b b A G S G A $.0.1.0.,.&.*.;.c k B H H j J b ",
"*.*.$.$.$.} } _ n n n H H H H H &.6.6.6.*.&.2.&.l b S J j S J b ",
"*.*.$.$.$.} X._ b b n n H H H H &.6.0.0.*.&.2.+.g l J E l G S j ",
"*.*.$.X.X.} X.} n l n H H H H n &.6.6.6.*.*.5.&.g b J U b J b l ",
"*.*.$.} X._ $.X.B l b H n H H j &.6.0.6.4.*.*.+.l n J S b E b S ",
"$.$.X.} } _ $.$.B b N H B H H g &.6.0.>.>.1.*.+.l M Y n M E b J ",
"X.$.X.} X.} $.$.n n n H B H H g &.0.0.,.*.2.1.&.b B R l G J l J ",
"X.X.X.} X.} $.$.j n H H H H N c &.0.0.*.>.6.,.&.b B Y g J J b J ",
"X.X.X.} $.} $.X.g n H H H H c l &.0.0.*.,.6.,.*.b B J u T S M E ",
"X._ $.$.X.} ,.X.c B H H H b n l &.0.4.;.1.,.4.,.n H M s ! l S J ",
"X.X.X.$./ } ,.$.j B n H B g c j *.6.;.&.1.;.,.*.H J n l E n M S ",
"_ X.X.*._ X.*.X.s H H J H l n c >.0.&.*.1.1.6.;.b H k B J S G S ",
"/ } X.$.} $.,./ 4 c n J B i n s +.0.&.&.&.;.1.$.b J l Y G M S B ",
"/ } $.} } X.,._ 0 n B H B s c s &.9...;.,.,.2.&.n J l R M S J B ",
"E X.;.} } } &.} k Z H H n k c c +.&.J +.1.;.1.*.S S l J S J J B ",
"J &.X./ _ / / J t i k u 9 e 9 9 ` ..Z ] +.X.$.$.B l l l g l l u ",
"B E n i j l i s & & 4 & % : % - c J t k s l B c = % 1 & & & & & ",
"& 0 4 < e : 4 9 ] >.&.1.;.} _ Z R / R P n R R k ) X.J J } _ / l ",
"t c B Z Q Q H P ;.4.4.4.4.;.1.X.P n c H Z Z P R 4.t.r.0.u.u.t.*.",
"s s t 9 u Z s Z &.>.;.;.;.>.4.&.n e s s s n Z H *.0.2.,.6.1.0.*.",
"s u e 9 u N s c +.;.;.+.$.;.,.&.s t c u k Z Z Z &.0.2.2.6.*.4.4.",
"t u e t c k c k $.1.4.;.;.>.1.&.k e k s N H H J *.0.1.2.2.*.4.*.",
"s k 9 e k e N k +.,.;.;.;.,.4.&.u e s u c Z Z J &.0.,.6.6.1.*.*.",
"9 u 9 s c s Z c +.1.&.&.,.1.6.X.t s s s c H H H &.0.,.2.2.1.*.*.",
"t s 9 k c k c k $.1.+.&.1.,.4./ e s t k N Z H H &.0.,.2.,.,.*.*.",
"s e 9 c k k c N $.4.+.&.1.;.1.} e s u k B H J c &.6.1.2.;.1.;.;.",
"s e e k k c c c $.1.$.&.1.;.4.} t s s n Z Z J c *.6.1.1.,.;.;.,.",
"p e e k k c n N $.1.&.;.,.1.1.' 9 u s B H Z H c *.6.>.,.1.*.,.,.",
"e 9 t s c N n n +.1.&.;.;.1.1./ 9 t s N Z Z Z k *.1.>.,.6.*.,.1.",
"e 9 s k c n c c +.,.;.;.1.1.;./ 9 u l B Z H Z 0 *.*.2.>.6.;.1.1.",
"e 9 k k c c k k X.;.&.;.1.1.;.] 9 u c B Z Z x 9 &.>.*.1.4.;.1.,.",
"e e c k k c k c +.&.;.;.1.1.&.] 0 p c B Z Z l u +.1.2.6.,.;.,.1.",
"9 9 c d k c k n &.;.;.;.1.;.+.` s s n Z Z Z N N X.2.1.2.;.,.,.,.",
"9 s k d c c s 9 X.;.;.1.>.&.$./ s s Z Z Z Z N P +.;.1.,.;.&.4.,.",
"9 s s k c k k p } ;.;.1.>.;.;.` u s Z Z Z N N H &.;.1.,.;.;.1.,.",
"9 s k c c k c c } ;.&.1.;.;.;.} t k Z B Z n Z Z &.1.,.;.;.;.2.;.",
"9 k k k k c c c } ;.;.1.;.&.;.` t n Z B H k P n +.1.1.;.;.;.1.;.",
"9 k k k c c c s } ;.;.1.;.&.&.) u B Z n Z c P c $.1.1.1.;.;.1.&.",
"r c c k k c k r ` ;.>.1.;.&.;.` u B Z n Z k H c $.,.1.,.;.;.1.&.",
"s c k d c c k r } ;.,.>.;.&.;.` s B B n N n Z B &.4.1.&.;.,.2.&.",
"k c d k N c k s } ;.;.;.&.+.;.] c B Z Z N Z H Z &.2.1.&.&.,.2.&.",
"z c s c c c c r [ &.>.>.&.&.&.` c Z c Z N Z D N +.2.,.,.>.*.4.&.",
"c c s c c N d u o.&.>.>.+.&.&.] c Z m N m Z H N +.6.*.,.>.*.1.&.",
"c z k c c N s p +.>.>.;.+.&.&.` l Z N c c H H v +.2.*.,.5.*.1.&.",
"c s z c c c p p +.>.>.;.&.+.+.` c Z N l v D Z v &.,.*.*.1.1.*.&.",
"c k c c c c p p +.1.1.&.$.+.+.` N n c c N Z V N +.;.;.*.*.4.*.*.",
"c z c c c s p d X.1.;.&.&.+.X.} B c n c N N N N +.*.;.;.5.*.*.>.",
"k k c c c r s d +.1.&.+.+.+.+.X.B c B k N N N C X.&.,.,.1.;.*.;.",
"s d c c z 9 d d +.4.&.+.+.+.+.+.N N Z k c Z Z N X.$.>.>.1.;.&.;.",
"p p v v z s p v +.:.:.O.| +.%.o.c B n k Z V Z V o.>.;.>.>.&.*.>.",
"z d v z z d d v @.:.=.+.O.+.=.+.k B k c N N N v | &.;.1.1.&.&.>.",
"z z z d d d d v %.:.o.+.+. .&...z Z s N N V Z N o.;.>.5.>.@.*.2.",
"z z z d s d d v @.3.o.+.O.| :.| k N u N m z Z c o.;.>.;.*.@.;.*.",
"p d z p r d s d ] :.o...| | <.| z n d N Z k H N O.3.5.<.*.*.>.O.",
"r z v d r d d s [ :.@.| { | -.{ z z d c Z d Z N ] <.5.;.&.>.1._ ",
"q d V p r d a u W ` Q T I E ( P 7 2 4 r 0 9 u 0 ' -.<.*.O.;.5...",
"@ 2 r 2 - 4 < * q e q 7 q u a r @ o @ 4 : : - - g N Z v h N P Z ",
"I ` Q K Q Q I K p y q e y z V u +.<.4.4.w.3.7.| y z S A F D T v ",
"w.y.4.4.r.w.r.4.c p q 5 r v F F ` :.4.:.<.=.7.O.V K T L L U ! C ",
">.=.@.o.>.=.>.@.5 < 5 7 y h r p ^ :.3.:.=.%.3.O.g x h x j b M a ",
">.=.o.o.>.=.;.o.q q r r x v i p ` :.>.-.:.:.>.o.z m j m j G M j ",
">.>.&.@.>.=.;.o.2 u 5 e z h z p ) >.>.:.>.>.:.| b M j M l G l f ",
"=.@.&.&.>.@.;.[ 2 a q s m v N q W >.>.>.:.:.:.o.j v x M M J g f ",
">.=.;.>.4.;.>.[ q r 5 p z h v 5 I 4.4.>.:.:.=.O.d v j v M L f f ",
">.&.&.&.>.;.>.) e 9 q h v v d 9 Q 7.4.>.:.3.=.o.f j x b S G f y ",
">.=.@.4.:.=.3.' w y q h v k v 5 ] 7.>.5.3.=.<.[ d z c x A M y i ",
"=.=.@.4.:.=.3.` r r r z v z h 3 ..7.>.3.3.-.>.[ s z x c S m i i ",
"=.=.;.4.:.:.>.( w r a v V v p 2 +.7.1.1.<.-.1.[ a k k v A m a i ",
"=.;.>.>.=.:.=.^ w w z v M v w 2 %.7.>.1.:.;.1.] u h h m S b f i ",
"&.:.>.:.:.-.%.^ q w x m V c q 5 =.3.>.>.-.:.:.[ y h h V C x f i ",
"@.:.>.:.=.-.@.) 9 e c v v k 9 q =.>.3.>.=.:.3.[ y g g V C j h y ",
"&.=.:.:.:.=.O.] 7 p z v x p 9 u &.:.3.>.=.:.:.| u d d V V g h t ",
"=.=.:.:.=.=.o.| 9 p z x k y 9 u %.-.3.3.&.>.3.[ p g s C C f h w ",
"=.=.>.=.;.=.@.) 4 k d c c 5 w k [ 3.3.=.:.:.3.' y f b V z j y a ",
"@.=.:.-.=.@.&.) 4 k k v k 9 p k | 3.3.=.:.:.3.' a f v V z f y a ",
"@.:.=.=.:.o.-.) 7 d z v p 7 s k o.3.:.=.:.:.:.' y h v v j a a a ",
"o.3.=.-.:.[ -.^ q p z c 9 7 k k o.3.3.=.=.=.:.' y h v j j y f f ",
"o.3.=.:.;...=.Q 0 r z k 9 9 c s o.:.:.=.=.=.:.{ y h v f f y j f ",
"o.:.:.=.=.o.@.Q r e z d 4 r c u | :.:.=.:.=.:.{ y v v f f y v f ",
"@.=.:.=.&.@.+.W u e d p 4 s c e o.:.=.=.=.=.:.{ y V z h y f j a ",
"%.=.:.@.&.@.o.Q p r d r 7 d c e o.:.:.=.=.=.:.{ y A h h y f b i ",
"=.=.%.=.@.o.o.` s p d 9 7 x c u ] >.%.;.;.&.:.` j v j f f f j i ",
"@.=.%.=.o.o.o.( p p p 7 q m v p ..4.&.=.-.&.1.[ j j h h h h b i ",
"@.%.%.@.o.[ [ Q r d p 2 r V c p ..1.&.-.-.-.:.] j h f f f j j w ",
"@.=.=.@.o.' [ W 7 d e > u V z p ] -.&.=.;.-.-.( j f f f f f g 6 ",
"=.=.:.@.@.| o.^ 4 d 9 > p V z p ` &.&.=.-.-.*.( b f f f f f f 6 ",
"@.%.=.o.@.| @.( 3 p 7 3 k m z p ) @.&.%.*.-.&.' f f j i f f t 8 ",
"o.@.=.[ @.[ @.^ 2 r 5 5 d x k u ^ @.=.=.%.-.&.] y f j y f f 8 8 ",
"@.%.=.| @.[ @.( 2 q 3 q d z k r W o.-.-.-.-.%.` 8 f j t f i 6 8 ",
"+.=.+.o.o.` -.^ 4 q 9 9 p N x e P &.&.&.-.-.%.P 8 l a w f f 6 8 ",
"[ =.o.+...[ -.^ 9 9 9 e d c k r A &.=.&.&.%.=.~ y l f e f y 6 8 ",
"] @.[ o.] ..*.~ q 5 q p z z s r P o.;.&.,.%.,.| i j a y f 8 6 y ",
"] @.[ o.` +.=./ 4 3 q s z k r r ^ ` o.+.<.+.=.] w y y i i 6 6 i ",
"` o.^ ` ~ o.+.Q = 2 9 p k d r 7 ^ ^ o.[ -.+.*./ w t t y y 6 6 f ",
"` ] ) ` ^ o.+.Q % ; 5 e p d r 3 I ) %.) ' +.=.Q i y w w w 6 8 f ",
"^ W ~ ~ ( ` ` K o @ * 2 q e 4 = N I ) I F Q ' J 6 6 6 , 6 , 6 6 ",
"v z m m V v z 9 .   X @ = ; % o d p c c p z v h + $ O O O # # # "
};
