/* XPM */
static char *result[] = {
/* columns rows colors chars-per-pixel */
"32 160 256 2 ",
"   c black",
".  c #010101",
"X  c #020202",
"o  c gray1",
"O  c #040404",
"+  c gray2",
"@  c #060606",
"#  c #070707",
"$  c gray3",
"%  c #090909",
"&  c gray4",
"*  c #0B0B0B",
"=  c #0C0C0C",
"-  c gray5",
";  c #0E0E0E",
":  c gray6",
">  c #101010",
",  c #111111",
"<  c gray7",
"1  c #131313",
"2  c gray8",
"3  c #151515",
"4  c #161616",
"5  c gray9",
"6  c #181818",
"7  c #191919",
"8  c gray10",
"9  c #1B1B1B",
"0  c gray11",
"q  c #1D1D1D",
"w  c #1E1E1E",
"e  c gray12",
"r  c #202020",
"t  c gray13",
"y  c #222222",
"u  c #232323",
"i  c gray14",
"p  c #252525",
"a  c gray15",
"s  c #272727",
"d  c #282828",
"f  c gray16",
"g  c #2A2A2A",
"h  c gray17",
"j  c #2C2C2C",
"k  c #2D2D2D",
"l  c gray18",
"z  c #2F2F2F",
"x  c gray19",
"c  c #313131",
"v  c #323232",
"b  c gray20",
"n  c #343434",
"m  c #353535",
"M  c gray21",
"N  c #373737",
"B  c gray22",
"V  c #393939",
"C  c #3A3A3A",
"Z  c gray23",
"A  c #3C3C3C",
"S  c gray24",
"D  c #3E3E3E",
"F  c #3F3F3F",
"G  c gray25",
"H  c #414141",
"J  c gray26",
"K  c #434343",
"L  c #444444",
"P  c gray27",
"I  c #464646",
"U  c gray28",
"Y  c #484848",
"T  c #494949",
"R  c gray29",
"E  c #4B4B4B",
"W  c #4C4C4C",
"Q  c gray30",
"!  c #4E4E4E",
"~  c gray31",
"^  c #505050",
"/  c #515151",
"(  c gray32",
")  c #535353",
"_  c gray33",
"`  c #555555",
"'  c #565656",
"]  c gray34",
"[  c #585858",
"{  c gray35",
"}  c #5A5A5A",
"|  c #5B5B5B",
" . c gray36",
".. c #5D5D5D",
"X. c gray37",
"o. c #5F5F5F",
"O. c #606060",
"+. c gray38",
"@. c #626262",
"#. c gray39",
"$. c #646464",
"%. c #656565",
"&. c gray40",
"*. c #676767",
"=. c #686868",
"-. c DimGray",
";. c #6A6A6A",
":. c gray42",
">. c #6C6C6C",
",. c #6D6D6D",
"<. c gray43",
"1. c #6F6F6F",
"2. c gray44",
"3. c #717171",
"4. c #727272",
"5. c gray45",
"6. c #747474",
"7. c gray46",
"8. c #767676",
"9. c #777777",
"0. c gray47",
"q. c #797979",
"w. c gray48",
"e. c #7B7B7B",
"r. c #7C7C7C",
"t. c gray49",
"y. c #7E7E7E",
"u. c gray50",
"i. c #808080",
"p. c #818181",
"a. c gray51",
"s. c #838383",
"d. c #848484",
"f. c gray52",
"g. c #868686",
"h. c gray53",
"j. c #888888",
"k. c #898989",
"l. c gray54",
"z. c #8B8B8B",
"x. c gray55",
"c. c #8D8D8D",
"v. c #8E8E8E",
"b. c gray56",
"n. c #909090",
"m. c gray57",
"M. c #929292",
"N. c #939393",
"B. c gray58",
"V. c #959595",
"C. c gray59",
"Z. c #979797",
"A. c #989898",
"S. c gray60",
"D. c #9A9A9A",
"F. c #9B9B9B",
"G. c gray61",
"H. c #9D9D9D",
"J. c gray62",
"K. c #9F9F9F",
"L. c #A0A0A0",
"P. c gray63",
"I. c #A2A2A2",
"U. c gray64",
"Y. c #A4A4A4",
"T. c #A5A5A5",
"R. c gray65",
"E. c #A7A7A7",
"W. c gray66",
"Q. c #A9A9A9",
"!. c #AAAAAA",
"~. c gray67",
"^. c #ACACAC",
"/. c gray68",
"(. c #AEAEAE",
"). c #AFAFAF",
"_. c gray69",
"`. c #B1B1B1",
"'. c #B2B2B2",
"]. c gray70",
"[. c #B4B4B4",
"{. c gray71",
"}. c #B6B6B6",
"|. c #B7B7B7",
" X c gray72",
".X c #B9B9B9",
"XX c gray73",
"oX c #BBBBBB",
"OX c #BCBCBC",
"+X c gray74",
"@X c gray",
"#X c gray75",
"$X c #C0C0C0",
"%X c #C1C1C1",
"&X c gray76",
"*X c #C3C3C3",
"=X c gray77",
"-X c #C5C5C5",
";X c #C6C6C6",
":X c gray78",
">X c #C8C8C8",
",X c gray79",
"<X c #CACACA",
"1X c #CBCBCB",
"2X c gray80",
"3X c #CDCDCD",
"4X c #CECECE",
"5X c gray81",
"6X c #D0D0D0",
"7X c gray82",
"8X c #D2D2D2",
"9X c LightGray",
"0X c gray83",
"qX c #D5D5D5",
"wX c gray84",
"eX c #D7D7D7",
"rX c #D8D8D8",
"tX c gray85",
"yX c #DADADA",
"uX c gray86",
"iX c gainsboro",
"pX c #DDDDDD",
"aX c gray87",
"sX c #DFDFDF",
"dX c gray88",
"fX c #E1E1E1",
"gX c #E2E2E2",
"hX c gray89",
"jX c #E4E4E4",
"kX c gray90",
"lX c #E6E6E6",
"zX c #E7E7E7",
"xX c gray91",
"cX c #E9E9E9",
"vX c #EAEAEA",
"bX c gray92",
"nX c #ECECEC",
"mX c gray93",
"MX c #EEEEEE",
"NX c #EFEFEF",
"BX c gray94",
"VX c #F1F1F1",
"CX c gray95",
"ZX c #F3F3F3",
"AX c #F4F4F4",
"SX c gray96",
"DX c #F6F6F6",
"FX c gray97",
"GX c #F8F8F8",
"HX c #F9F9F9",
"JX c gray98",
"KX c #FBFBFB",
"LX c gray99",
"PX c #FDFDFD",
"IX c #FEFEFE",
"UX c white",
/* pixels */
"2.<.8.5.*.,.8.<./ } 5.:.;.>.{ &.0.0.0.0.q.r.u.i.t.w.4.} C / u.0.",
">.O. .O.=.6.q.6.) ` :.;.1.<.[ $.=.4.q.q.8.8.6.3.=.=.:.T V ) <.c.",
"i.3.o...%.#.o.$./ ) >.,.:.#./ -.0.,. .` $.q.r.4.3.-.-.A B / ( u.",
"3.2.*.&.=.[ ' >.R ^ <.>...Q I 1.0.#.K b Y >.t.q.9.=...V V _ / O.",
"| +.#.=.*./ R O.H J  .{ E D A -.) _ E Z C W X.%.( R L V b / =.' ",
"` / ^ ] ' H b N Z z S S D A n ' R Q E K S A D D k z m m y N X.E ",
"D c v A S B b k M s z k m V j L ( L N M B m k s a t j f 8 t v S ",
"N s f l s f x h b g n j z c p S H n k k h u r i s 1 e 8 r u 4 G ",
"J t U C D J B K U U ! L b z H E #.o.) n K Y H P Q { { O.{ X.G C ",
"V W o.} '  .] +.$.O.X.^ F I  .$.X.$. .Z | 7.7.4.*.;.+.o...7.o.L ",
"P %.[ =.&.:.&.,.q.7.>.] S R | {  .&.{ n <.E.OXOXT.E.T.U.K..XG.{ ",
"[ ) P +.:.>.=.;.#.=.;...F ' *.O.*.5.-.F 9.V.n.i.u.9.7.7.6.D.D.' ",
"W F o.-.:.=.>.&.;.7.e.4.Y #.7.<.r.t.>.F 0.u.6.:.=. .o.$.X.0.c.` ",
"} t..XP.b.j.v.d.s.j.k.i.U @.8.4.'.P.t.S 3.>.;.4.3.;.4.q.>.,.s.! ",
"~ V.Y.l.a.q.w.8.7.7.9.w.L *.u.y.i.p.5.H p.0.5.e.5.,.-.=.&.>.n.#.",
"~ B.o...8.2.:.6.3.,.1.q.L %.q.7.w.s.0.G u.7.2.8.4.8.5.4.9.7.x./ ",
"] l.<.:.7.3.-.4.:.1.3.7.U -.q.5.p.h.q.I 1.0.8.9.3.7.6.<.,.3.j.[ ",
"' k.<.,.8.5.>.7.,.2.2.5.P =.e.8.u.f.0.I 1.8.6.8.2.6.7.1.<.3.h.' ",
"] h.1.1.8.6.2.8.1.2.2.3.L -.t.q.y.s.9.I 2.8.5.7.1.6.8.3.2.3.f._ ",
"{ g.1.3.6.5.3.6.<.2.2.5.I ;.t.q.t.a.9.Y 4.8.5.8.1.7.0.6.4.4.d./ ",
"| d.2.4.3.3.3.2.,.3.4.8.T :.r.9.y.a.9.E 7.9.5.9.4.0.e.8.5.4.a.! ",
"..s.3.6.1.2.4.<.<.4.6.0.R >.r.7.t.p.9.Q 9.0.5.0.8.r.y.q.7.4.p.Q ",
"X.p.3.8.1.3.8.2.3.6.7.9.Y :.r.8.r.u.8.! 9.9.4.9.w.u.p.e.7.4.p.W ",
"..i.4.0.2.5.w.4.6.8.6.7.I -.r.0.w.t.7.Q 9.8.2.8.t.a.a.e.8.4.i.W ",
"O.w.q.7.7.5.q.9.q.9.e.6.I 1.w.8.t.r.9.^ 6.7.7.0.p.d.y.t.9.6.<.( ",
"O.q.0.7.7.5.w.9.q.9.e.6.P 1.q.8.r.r.0.^ 5.6.6.0.u.a.r.e.8.4.>.~ ",
"O.q.0.7.8.7.e.9.q.9.w.5.P <.q.7.q.r.q.^ 4.5.6.9.r.i.w.w.7.3.-.E ",
"o.0.9.7.0.9.r.9.q.8.q.4.K ,.q.7.9.r.w.~ 1.3.5.9.e.u.q.e.8.3.=.U ",
"o.9.8.8.q.0.t.9.q.8.0.3.J ,.0.7.7.t.e.Q :.1.5.0.e.u.w.r.q.5.*.P ",
"X.8.8.8.w.w.y.9.0.7.9.2.H >.0.7.6.t.e.R *.>.5.q.e.u.e.y.e.6.*.K ",
"X.8.7.8.r.e.y.9.0.7.9.1.G :.9.7.5.y.e.Y $.;.6.w.w.y.w.y.r.7.&.G ",
"X.7.7.8.r.r.u.9.0.7.8.<.G :.9.7.5.u.e.I +.-.6.e.q.t.w.y.r.6.%.F ",
"o.4.0.7.r.p.t.0.q.9.5.5.P ;.e.8.3.r.e.F O.,.<.r.t.w.i.u.9.q.&.S ",
"O.<.5.6.t.i.e.w.q.0.5.5.P -.e.8.3.r.t.G X.:.<.t.t.w.i.u.9.q.&.S ",
"O.-.,.6.u.u.w.e.q.0.5.5.P -.e.8.2.e.y.J | -.1.y.t.w.i.u.9.q.&.S ",
"X.$.-.5.i.y.0.t.0.0.6.6.P =.e.9.2.q.i.L [ &.3.y.t.w.i.u.9.q.&.S ",
"} +.=.5.i.t.0.t.9.0.7.6.L *.e.0.4.8.u.L ` %.5.t.t.w.i.u.9.q.&.S ",
"_ @.:.6.y.t.q.e.9.0.8.6.L &.e.0.6.6.y.P ) &.7.e.t.w.i.u.9.q.&.S ",
"! $.3.7.t.y.w.q.8.0.8.7.K &.e.q.9.4.r.L ( *.9.q.t.w.i.u.9.q.&.S ",
"R %.7.8.r.u.w.0.8.0.8.7.K &.e.q.0.3.e.L ( =.0.9.t.w.i.u.9.q.&.S ",
"Q <.0.r.t.9.e.9.8.0.8.6.J $.w.q.5.3.w.G { ,.4.y.r.q.q.r.t.5. .U ",
"Q 1.q.r.r.9.w.9.8.0.8.6.J $.w.q.7.4.0.F [ :.3.r.9.r.i.y.y.y.+.m ",
"~ 3.w.e.e.8.w.7.8.0.8.6.J $.w.q.9.5.6.S ] =.4.r.i.q.e.w.9.e.%.B ",
"^ 4.e.w.q.8.w.6.8.0.8.6.J $.w.q.0.6.1.D } =.7.r.d.6.e.j.u.6.@.U ",
"^ 6.e.q.0.8.w.5.8.0.8.6.J $.w.q.0.7.>.G X.=.9.w.8.q.x.A.c.q.o.K ",
"^ 6.r.0.9.9.e.5.8.0.8.6.J $.w.q.0.8.-.K +.&.8.6.,.g.c.i.t.r.O.Z ",
"~ 6.r.9.8.9.r.6.8.0.8.6.J $.w.q.0.9.*.P #.+.2.-.3.j.9. .1.y.+.D ",
"! 6.r.9.8.0.t.6.8.0.8.6.J $.w.q.0.0.*.I #.X.:.+.6.i.$.] t.h.o.L ",
"/ 4.u.7.7.r.e.9.4.8.w.*.P +.4.t.w.q.=.S &.X.} <.r.:.%.+.3.g.-.G ",
"! <.r.6.7.r.r.0.7.w.e.$.K @.5.e.6.e.2.G $.+.$.q.$.1.=.=.*.-.*.H ",
"~ <.r.7.9.y.r.q.6.e.w.X.F %.8.q.q.u.3.S O.@.#.>.{ 7.;.3.-...;.J ",
"/ <.e.8.0.r.w.9.5.w.8.{ S -.w.w.i.y.>.V @.:.$.| &.9.,.6.7.3.1.J ",
"~ :.0.8.q.t.w.9.9.e.7.[ D >.t.w.r.e.<.S $.2.>.X.3.1.3.1.9.a.:.L ",
"/ :.q.q.y.p.y.e.r.w.4.{ H ,.e.w.8.w.9.K ] X.%.+.;.*.3.=.:.w.$.Y ",
"/ ;.8.8.w.r.8.6.9.2.=.` J :.q.e.w.q.9.G W ~ ..O.#.:.-.%.%.,.-.R ",
"W #.<.>.<.>.%.+.>.#. .^ G -.0.t.i.7.<.A Q _ $.*.&.6.o.&.-.;.7.R ",
"Y 5.+.#.2.#.=.O.) X.;.~ L 4.1.y.w.9.:.m [ y.1.1.0.~ X.5.1.v.h.M ",
"H ;...=.i.r.w.&.o.+.#.T K 4.1.w.5.r.8.M L ..! E W e m 1.:.J v n ",
"D e.p.4.o.~ o.%.2.-...L G ,.-.1.4.q.2.z n I A B J ! L m n b v C ",
"J #.| ~ ^ ' #.X.( Q K C J 4.8.r.d.5.[ y z I ~ ' T [ Q A H H V Z ",
"A P A F ` -.=.` H H V V H *.;.<.{ T G f m M C A U S J ( / J V V ",
"k K ` ) U J H D T E F H D ^ R P H A H N B h c b D N Z N f z N j ",
"g c K P B z d a l b f m N L C x x h s 4 9 t V N m j x B l t t p ",
"x f n c t 8 8 y 6 0 , y p z y < 7 f G U  .O.X.M F R J B J Y K J ",
"M h N z e l n C l n z y s c D T [ V #.%.[ #.$.D R R Y ~ ..o...@.",
"{ z G  .+.+.[ X. .#. .R m P | :.| H 2.y.e.a.9.P ^ ] ) / ..*.-.:.",
"Y C $.-._ ) } ,.t.d.r.=.m ~ 1.i.F.9.v.n.c.n.p.Y t.c.b.j.c.n.h.u.",
") z ' o.,.m.Q.|.G.K.S.z.E 5.B.D.n.:.3.,.1.9.4.D P.(.).Q.W.I.Z.m.",
"-.N y.W.[.U.f.e.i.p.y.0.H 4.c.i.d.<.8.8.w.t.w.U f.a.q.8.0.6.8.s.",
"] B x.c.9.-.-.6.4.5.7.<.Y 0.x.3.y.5.0.7.8.3.2.D f.r.5.9.r.7.0.k.",
"o.G v.7.#.,.2.*.<.6.q.%.R 3.f.&.<.>.<.1.8.6.e.W e.q.6.9.t.9.3.8.",
"<.m u.3.&.-.2.6.1.w.i.o.Y &.t.O.%.;.1.6.t.8.9.L t.y.7.1.0.r.q.w.",
"%.K e.*.>.4.,.1.3.5.w.$.L 5.t.#.*.-.-.9.e.9.1./ 6.7.8.8.8.8.0.w.",
"%.K r.=.,.5.1.3.4.5.w.$.L 4.r.#.;.:.*.2.9.q.2.W 6.7.7.7.7.8.0.w.",
"&.K e.=.<.7.3.4.5.5.w.%.K 1.w.$.>.1.&.=.2.q.3.Y 5.6.6.6.5.6.9.q.",
"&.K w.*.<.7.3.5.7.5.e.*.K :.9.%.:.4.=.#.=.8.2.I 5.5.5.4.4.5.8.q.",
"*.K q.&.,.8.4.4.9.5.e.=.J &.6.*.=.7.<.%.%.3.<.U 5.5.5.4.3.5.8.q.",
";.L q.&.<.9.4.5.0.5.e.;.H @.3.=.*.7.3.;.=.2.>.U 6.5.5.3.3.5.9.w.",
"<.Y e.=.2.q.6.6.q.5.r.:.H o.1.-.=.5.2.1.1.5.:.I 7.6.5.3.3.5.9.w.",
"4.R t.;.4.e.8.8.w.5.r.>.H X.<.;.;.3.<.4.7.8.:.L 7.7.5.4.3.6.0.e.",
":.Q 8.,.,.w.q.w.w.9.0.,.I #.q.,.1.,.2.3.4.6.%.R 7.9.7.3.2.5.q.r.",
">.! 8.<.,.w.0.w.w.9.0.>.I #.q.,.<.,.2.3.4.7.&.R 7.9.8.4.2.6.q.r.",
">.! 8.<.,.w.0.q.w.9.0.>.P @.q.<.>.>.2.4.5.8.*.R 7.0.0.5.3.7.w.e.",
":.! 9.1.<.w.9.0.q.0.0.>.K O.0.<.:.,.3.3.5.0.=.R 6.q.w.6.4.8.w.q.",
";.Q 9.1.<.w.0.0.q.0.q.:.J o.0.1.:.<.4.2.4.q.;.R 4.q.e.6.4.9.q.8.",
"-.W 8.2.1.e.0.q.0.0.q.:.H X.0.2.>.2.5.1.2.q.;.R 2.q.e.5.3.9.0.5.",
"*.E 8.2.2.r.q.q.0.0.q.:.G ..0.3.1.4.5.<.1.0.:.R <.q.e.5.2.8.9.3.",
"&.R 7.2.2.t.w.w.0.0.q.;.F  .0.3.2.6.6.,.,.0.:.E ,.0.e.4.2.8.8.1.",
"%.~ 2.2.7.q.q.r.8.0.q.;.H +.r.4.2.9.5.6.6.7.,.W 4.6.2.2.7.4.1.8.",
"$.! 2.2.7.q.q.r.9.0.q.;.H +.t.5.2.9.5.6.6.7.<.W 2.3.<.1.6.2.<.7.",
"@.Q 1.1.7.0.q.e.9.q.w.;.H @.y.6.3.9.5.6.6.7.<.W >.<.:.,.4.1.>.6.",
"O.E <.1.7.0.q.e.0.q.w.;.H #.u.8.4.0.5.6.5.7.1.Q ;.,.:.,.5.2.,.6.",
"X.R ,.1.7.q.q.e.q.w.w.;.H #.i.0.4.0.5.6.5.7.1.! -.>.:.<.6.3.1.8.",
"..R <.2.9.w.w.r.q.w.w.;.J $.a.q.5.q.5.6.5.7.2.~ =.:.:.1.8.5.2.9.",
"..R <.3.0.r.r.t.w.w.w.;.J %.a.w.6.q.5.5.5.7.2.^ &.;.;.1.8.6.3.0.",
"..R 1.4.q.t.r.y.w.e.w.;.J %.s.e.6.w.5.5.5.7.2.^ %.-.-.<.8.5.2.9.",
"[ Y 1.3.q.u.y.t.p.e.r.:.D #.f.q.q.9.6.9.2.4.4./ O.>.=.4.0.1.6.9.",
"[ Y <.2.0.y.y.r.p.e.r.:.D #.f.q.w.0.7.0.4.6.6._ o.:.=.4.q.2.5.8.",
"[ Y <.1.9.y.t.r.p.e.r.:.D #.f.q.r.w.7.q.5.8.9.' X.-.*.4.q.2.5.7.",
"[ Y ,.<.8.t.t.r.p.e.r.:.D #.f.q.r.q.7.0.6.9.9.`  .=.&.4.w.3.4.5.",
"[ U >.,.7.r.r.r.p.e.r.:.D #.f.q.e.0.5.0.6.9.7.(  .*.$.3.w.3.4.4.",
"] U :.>.6.e.r.r.p.e.r.:.D #.f.q.w.9.5.q.7.9.5.Q  .&.@.1.q.3.4.4.",
"] I :.:.5.w.r.r.p.e.r.:.D #.f.q.w.9.6.w.9.9.3.R ..%.+.,.0.3.5.5.",
"] I ;.:.4.w.r.r.p.e.r.:.D #.f.q.e.0.7.r.q.0.2.Y ..%.O.>.9.3.5.5.",
"[ P :.1.8.w.w.e.r.r.e.-.G #.a.e.q.8.w.9.r.8.5.P  .$.O.-.3.4.7.:.",
"] P >.2.0.r.e.r.t.t.e.-.G #.p.w.0.7.q.8.e.8.5.P [ +.o.;.4.5.9.>.",
"' P ,.4.e.y.t.y.y.t.w.-.H #.i.9.9.6.0.7.e.7.6.I ] O.X.-.3.4.7.;.",
"` L ,.6.t.i.u.u.u.t.q.=.H $.i.7.9.5.9.6.w.7.6.U | +...%.>.>.2.%.",
"( J >.5.t.p.i.p.i.r.0.=.J &.u.4.0.6.9.6.w.7.7.Y  .+.{ o.&.=.<.$.",
"^ F -.2.e.i.p.a.u.w.8.*.L *.i.3.w.8.0.6.w.8.7.Y { ..' ..$.*.<.&.",
"! S &.,.0.u.i.s.u.q.6.&.P -.i.3.r.0.q.7.e.8.8.T ] X.[ O.*.=.,.#.",
"W Z $.:.8.y.i.s.y.0.5.&.P ;.p.2.y.q.w.8.e.8.8.T { O. .$.;.=.;.X.",
"/ J $.o.8.y.5.e.e.0.;.o.K 0.r.-.9.5.=.3.w.<.q.U ( $.^ X.=.2.O.} ",
"[ L @.*.3.e.4.w.9.7.>.&.K 2.w.1.;.%.2.9.%.| 9.K  .>.( ( ( } ]  .",
"[ J | &._ O.$.8.5.-.X.%.Y 6.t.;.%.>.<.-.*.*.w.W U >.<.9.9.7.2.6.",
"..H ' 4.[ o.[ } -.%. .*.T 0.g.=.=.:.>.] ^ +.4.M '  .P ! 3.s.u.4.",
"{ S ' c.v.Z.i.-.#.:.&.,.K 2.l.*.$.%.8.O._ 4.f.A ` | D z K ^ X.O.",
"W A ~ 8.9.e.0.,.-.%.` $.G 1.v.#.>.h.9.} d.h.+.Z L o.} P T K _ { ",
"R D S A M z F H #.` U %.G >.K.j.R.oXT.f.I.r.P J _ _ V d Q [ +.( ",
"U n g l W Q { Q R ~ [ e.S ..{.2Xd.>.I.H._ l U G K ~ S u V D ` _ ",
"G b b [ =.[ } +.F ) ;.9.F U C E w d 0 G A !  .b N K A B d M Z P ",
"n B N R } O.-.#.+.:.;.#.V J M l T ~ / [ Q / Y g k M n M p k h l ",
"y s e i z C Y J _ | ! A v I ` I _ Q ( C x g 0 4 t p i f 6 i s h ",
"i q - , < = 4 6 t h a 5 e f U D k s k a n d c S U T L S 9 q e w ",
"} [ Q / Q F F B d a s 8 u 1 w 0 7 9 9 n W l P E F R ( ! f N I U ",
"q.j.g.h.j.f.y.*.T v n h F n v L T Y B _  .J X. .:.3.<.' f Y ;.2.",
"C.J.A.J.T.R.T.B.U n W T X.+.( 0.l.g.q.s.w.d.H.S.k.x.p.o.m ;.K.T.",
"l.q.-.0.p.w.s.h.U ! g.d.f.t.) w.T.I.Y.A.q.Z.S.c.b.V.l.#.n $.c.d.",
"1.:.$.&.<.>.1.e.G D.~.Y.H.Z.#.y.v.N.n.h.j.n.n.h.f.t.f.X.x :.O.#.",
"4.,.%.=.2.,.,.0.G z.z.i.p.g.[ 8.z.z.f.i.s.h.a.q.q.q.g.#.x *.o.&.",
"6.<.&.-.3.,.;.4.P p.6.=.4.p.` 4.d.y.0.0.t.t.7.,.:.5.f.*.c +.o.=.",
"4.,.%.=.2.;.$.;.U u.2.-.9.g.[ 4.r.7.5.9.w.8.2.>.&.1.u.=.v  .X.=.",
",.-.$.=.1.*.O.%.J e.2.:.q.f.' 3.q.9.0.e.q.4.<.1.*.,.8.%.v { X.&.",
"*.*.%.;.1.*.O.&.F q.<.-.7.i._ 5.e.t.u.r.8.2.,.>.*.>.1.$.n ' o.%.",
"$.=.;.1.5.-.#.>.F 0.,.-.8.i.) 5.w.y.t.8.4.3.,.&.#.;.>.*.M _ O.&.",
"#.-.<.6.8.>.*.3.A 7.>.>.w.a.^ ,.7.w.9.<.1.6.1.@...=.>.;.B ( +.=.",
"<.1.4.7.9.8.5.2.K ,.<.1.w.s.W :.r.-.$.,.6.7.,.O.X.+.,.:.N { =.2.",
"1.2.4.7.9.8.5.2.J >.<.3.w.s.W -.0.>.>.6.7.5.<.$...o.:.:.N } -.2.",
"4.4.6.8.9.8.5.2.J ;.1.5.q.s.Q *.6.1.7.r.9.5.2.=.|  .-.-.B | -.1.",
"5.5.6.8.9.8.5.3.J *.1.7.0.s.~ %.6.4.w.p.r.0.6.;.} } &.*.B ..;.1.",
"6.6.6.7.8.8.5.3.K %.1.8.8.a./ #.8.5.w.p.i.y.0.:. .} #.%.B X.>.2.",
"5.5.5.6.7.7.6.4.L #.1.9.5.p.) #.9.5.q.u.i.s.r.,.o.} @.#.B O.<.4.",
"4.3.3.5.6.7.6.4.I +.<.9.2.i._ @.7.5.0.t.y.s.u.3.#. .+.@.N +.1.5.",
"3.2.2.4.6.7.6.5.U +.<.9.1.u.` #.5.5.q.r.r.p.i.7.%...O.+.N +.2.6.",
"8.4.,.,.5.0.8.1.P o.3.4.8.r.` &.9.8.8.w.u.p.y.w.-.} +.| A o.4.4.",
"7.4.<.,.5.q.8.1.P o.3.5.8.e._ &.0.8.8.w.u.p.y.w.,.X.$. .Z X.4.3.",
"7.5.1.<.6.q.9.2.L o.4.6.9.w.) &.0.8.8.w.u.p.t.w.4.#.*. .C X.5.4.",
"6.5.2.2.6.q.9.4.L X.4.7.9.0./ &.0.9.9.w.u.i.t.q.6.*.;...C o.7.7.",
"5.5.4.3.7.w.0.5.L ..4.9.9.8.^ &.q.9.9.w.u.i.t.q.6.-.,...C O.0.9.",
"4.5.5.5.8.w.q.6.K ..4.0.0.6.! &.q.0.9.e.u.i.r.0.6.:.1.X.V O.0.9.",
"3.5.6.6.9.w.q.7.K  .4.q.0.5.Q &.w.0.9.e.u.i.r.0.7.,.4.o.V O.8.6.",
"3.5.6.7.9.e.q.7.K  .4.w.0.4.W &.w.0.0.e.u.i.r.0.8.1.6.O.B X.6.3.",
"3.3.4.7.0.q.q.q.I ' 3.8.8.7.U %.e.5.8.r.w.e.y.e.e.4.3.o.Z  .1.7.",
"2.2.4.7.0.w.q.0.Y [ 5.9.0.9.T *.w.6.0.t.w.w.y.t.e.6.6.o.Z | 1.8.",
"1.2.4.8.w.e.q.9.Y [ 5.9.0.9.T *.w.7.e.u.q.q.u.u.r.9.9.O.V } 1.8.",
"1.3.6.0.e.r.w.9.I ' 3.8.8.7.U %.q.8.t.p.q.0.u.p.t.q.q.O.B { 1.8.",
"2.4.7.q.r.r.q.9.I ' 3.8.8.7.U %.q.8.t.p.q.0.u.p.t.w.0.X.N } 1.6.",
"3.4.6.9.q.q.9.7.Y [ 5.9.0.9.T *.w.7.e.u.q.q.u.u.y.q.8.| M | 2.3.",
"3.3.4.5.7.7.5.3.Y [ 5.9.0.9.T *.w.6.0.t.w.w.y.t.y.9.4.] m ..2.1.",
"2.2.1.2.3.3.2.1.I ' 3.8.8.7.U %.e.5.8.r.w.e.y.e.y.8.2.` m o.3.,."
};
