/* XPM */
static char *result[] = {
/* columns rows colors chars-per-pixel */
"32 160 228 2 ",
"   c #2D1B02",
".  c #2C1D0B",
"X  c #251A07",
"o  c #331D04",
"O  c #331E09",
"+  c #2A1E12",
"@  c #2E220C",
"#  c #352005",
"$  c #35230B",
"%  c #3B250C",
"&  c #3C290D",
"*  c #3A2406",
"=  c #262011",
"-  c #2C2415",
";  c #2D2717",
":  c #342414",
">  c #3A2613",
",  c #342914",
"<  c #3C2B14",
"1  c #372619",
"2  c #342C1C",
"3  c #3B2B1A",
"4  c #3E311C",
"5  c #392D23",
"6  c #342E20",
"7  c #3D3524",
"8  c #3E3829",
"9  c #442E17",
"0  c #44341C",
"q  c #4A351C",
"w  c #46381E",
"e  c #4A391F",
"r  c #433117",
"t  c #41290D",
"y  c #433523",
"u  c #493522",
"i  c #453925",
"p  c #4B3B24",
"a  c #45362A",
"s  c #453C2B",
"d  c #4B3D2B",
"f  c #4A3728",
"g  c #523E25",
"h  c #503E2B",
"j  c #453E32",
"k  c #4A3E31",
"l  c #4D3E3E",
"z  c #412E27",
"x  c #52401C",
"c  c #4D4127",
"v  c #46412E",
"b  c #4C412D",
"n  c #444126",
"m  c #534126",
"M  c #53442C",
"N  c #5B452C",
"B  c #5A492E",
"V  c #5A4629",
"C  c #474134",
"Z  c #4B4334",
"A  c #4E4935",
"S  c #4D4539",
"D  c #4E483B",
"F  c #474038",
"G  c #534633",
"H  c #584633",
"J  c #554935",
"K  c #5A4B35",
"L  c #52463B",
"P  c #544A3B",
"I  c #5A4C3B",
"U  c #57513F",
"Y  c #5D513C",
"T  c #5A5135",
"R  c #624C2E",
"E  c #614629",
"W  c #6B572F",
"Q  c #77562B",
"!  c #624D35",
"~  c #604F3C",
"^  c #684E33",
"/  c #655234",
"(  c #6A5434",
")  c #6C5936",
"_  c #63523C",
"`  c #6B553A",
"'  c #6D593C",
"]  c #66583D",
"[  c #7B5C33",
"{  c #735A3D",
"}  c #725737",
"|  c #75623C",
" . c #7A643B",
".. c #554B41",
"X. c #5A4E41",
"o. c #5B4C4A",
"O. c #5C5243",
"+. c #5E514B",
"@. c #614F44",
"#. c #614F4D",
"$. c #635443",
"%. c #6B5743",
"&. c #675841",
"*. c #6B5B44",
"=. c #63534B",
"-. c #6B5B4A",
";. c #64584B",
":. c #725D43",
">. c #725D4A",
",. c #645250",
"<. c #6F6245",
"1. c #726146",
"2. c #796243",
"3. c #736249",
"4. c #7C664B",
"5. c #7B6B4D",
"6. c #796848",
"7. c #7B6C52",
"8. c #796755",
"9. c #7E7156",
"0. c #7E7459",
"q. c #846338",
"w. c #836A4C",
"e. c #866948",
"r. c #8A734D",
"t. c #887549",
"y. c #917045",
"u. c #836D53",
"i. c #857355",
"p. c #8C7454",
"a. c #8D7955",
"s. c #85745B",
"d. c #89775D",
"f. c #85795E",
"g. c #8D7B5B",
"h. c #927A57",
"j. c #927C5C",
"k. c #9A7C5C",
"l. c #967753",
"z. c #8C7C62",
"x. c #8F7F68",
"c. c #8A7560",
"v. c #927D62",
"b. c #997E62",
"n. c #93815E",
"m. c #9F835C",
"M. c #9B8153",
"N. c #A0875F",
"B. c #8D8165",
"V. c #948364",
"C. c #9B8564",
"Z. c #9A8966",
"A. c #95856A",
"S. c #9A866A",
"D. c #97886C",
"F. c #9C8B6C",
"G. c #978966",
"H. c #9F916D",
"J. c #9F9067",
"K. c #988670",
"L. c #9D8D72",
"P. c #9E9173",
"I. c #A28566",
"U. c #A28A64",
"Y. c #A38D6D",
"T. c #A98E6A",
"R. c #A58967",
"E. c #A4916D",
"W. c #AA926E",
"Q. c #A79266",
"!. c #B49C64",
"~. c #B2946D",
"^. c #BA9B6C",
"/. c #B5986B",
"(. c #A38E72",
"). c #AA8F73",
"_. c #A18F79",
"`. c #A49273",
"'. c #AA9474",
"]. c #AC9976",
"[. c #A6947A",
"{. c #AA9579",
"}. c #A7997C",
"|. c #AD9A7B",
" X c #B29673",
".X c #B39A76",
"XX c #BC9D72",
"oX c #B19779",
"OX c #B39C7C",
"+X c #BB9E7A",
"@X c #BCA36B",
"#X c #B5A067",
"$X c #BDA273",
"%X c #B4A07E",
"&X c #BDA27D",
"*X c #BEA87B",
"=X c #BFAA73",
"-X c #C19F7C",
";X c #C1A176",
":X c #C2A57C",
">X c #C2AB7C",
",X c #C7A879",
"<X c #A99781",
"1X c #AC9C82",
"2X c #B49E81",
"3X c #B99F80",
"4X c #B59681",
"5X c #AFA083",
"6X c #B4A182",
"7X c #BCA483",
"8X c #B4A489",
"9X c #BCA689",
"0X c #BDA989",
"qX c #BDA984",
"wX c #BFA991",
"eX c #C2A583",
"rX c #C4AA85",
"tX c #C3AB8A",
"yX c #C9AD8C",
"uX c #CCAB80",
"iX c #C9B485",
"pX c #C5B18A",
"aX c #CBB38B",
"sX c #C4B187",
"dX c #D1B68D",
"fX c #C8AD91",
"gX c #CBB296",
"hX c #D5B994",
/* pixels */
"+ + X ; , , 3   u { ^ E { { } e.> 1 + + = ; 2 X e ) W ^ W ^ | / ",
"7 2 ; - . @ 3 o ^ u.:.^ e.l.k. Xh f 3 + - 2 8 , <.j.p.r.a.g.H.V.",
"U O.U P G I K q 8._.b.p.b.oXoXoX] ;.I L Z P U w v.OX`.W.].`.5X[.",
"C U U O.$.-.3.M K.gXtX3XfXgXyXoXN X.I O.U U P 4 A.2X.X].].E.[.G.",
"7 Z Z s Z I *.m s.2X).).OX3XeXI.h G Z Z k Z A 4 d.|.W.W.].Y.`.V.",
"s Z Z A G I I w s.2X_.).4X3XyXY.G P G Z j Z J y z.'.Y.Y.E.Y.`.V.",
"8 Z A I I J H < 7.{.(.{.OXoX7Xb.g G Z S j C Z , z.|.Y.Y.Y.F.`.B.",
"s Z Z P I I Y g c.oX(.oXoX'.tX(.h I L S k Z J 4 d.{.Y.W.'.H.`.V.",
"s G Z P I I K p s.1X{.(.'.].+XI.h J Z S S Z Z i d.{.Y.).).F.Y.g.",
"s S Z P I I K p i.}.{.Y.'.].OXS.d P L S S Z J d s.[.Y.Y.'.F.`.z.",
"a A G G P J J w s.}.(.(.`.'.OXS.g I S P S S A n d.{.(.).'.F.L.g.",
"s S G P K J J w s.}.`.Y.W.'.OXZ.h L L P ..S U b s.{.Y.Y.'.F.P.z.",
"s S G P I J B p s.[.`.P.`.'.|.F.h I L ........b c.{.Y.W.(.F.(.z.",
"s L G P I J K p s.}.`.E.].`.OXF.h X...O.o.....A c.{.Y.Y.'.F.(.z.",
"7 A G I L G H p s.[.(.P.`.`.OXF.G X.X.o.o.....G s.{.Y.).[.F.L.z.",
"7 Z Z L P G H p s.[.L.`.`.`.].F.M O.X.O.O.X.X.G s.[.Y.Y.).F.`.z.",
"7 Z J U J G K c s.P.L.`.`.`.OXV.M ~ I X.O...O.G v.{.).Y.).(.K.z.",
"7 Z G Y G J K c s.`.(.`.`.`.OXS.M ~ I $.O.P O.J v.[.).Y.).L.L.z.",
"7 Z J P G M K c s.P.(.(.Y.'.|.G.N _ @.O.O.X.O.H z.{.).(.).L.L.z.",
"7 b G P G M K p s.[.Y.(.`.'.OXV.h ~ I O.O.P $.M z.).).(.).(.L.z.",
"7 Z Z J G M I p s.P.L.(.`.'.OXV.N ~ ~ X.O.I O.G v.'.).Y.).(.K.x.",
"s d Z J G G I c d.P.L.(.`.'.OXV.g I I X.O.P I G z.[.'.Y.(.L.L.z.",
"s b b P J J Y c d.`.F.(.'.'.OXV.g K I I I P Y M z.).).Y.(.(.K.z.",
"7 d Z J J J Y c c.L.L.(.`.'.OXn.g ~ I I P P I M v.[.).(.(.(.L.z.",
"7 Z J P J J K B c.P.L.`.`.`.OXV.h _ Y Y P P I c d.OXY.Y.Y.(.(.c.",
"7 d J P J J J M z.L.F.`.(.'.OXV.e K J P P P I m d.OXY.).R.(.L.c.",
"s d L J J J J M x.L.S.(.Y.'.oXV.q K J J J P I c d.3X'.].Y.E.L.z.",
"7 Z J P J J B M v.L.D.(.(.`.OXn.g ! K J P J I c z.3XoXoXF.F.L.z.",
"a b J I J J J m x.L.D.Y.Y.Y.OXn.g K I K P J P p g.9XoX.XY.Y.F.z.",
"s Z P U I K J M x.(.D.(.F.F.OXV.q B J J J A Y c v.0XoX|.Y.F.F.z.",
"s A I U Y J B c z.L.F.F.C.F.oXV.0 M M G J P I m v.9XoX XY.`.(.g.",
"s Z I U Y Y J c z.L.L.Y.C.Z.|.Z.0 G G G J J I c v.9X].].Y.E.P.g.",
"i I U P T Y G c B.P.D.P.D.G.`.G.i A A I P H ! N b.9X{.oXE.'.E.h.",
"d U O.Y U Y A c B.P.P.P.G.B.P.G.s A Z b M G ! N x.fX2XOX'. X].n.",
"0 P Y P U J M n B.P.D.D.V.V.[.F.0 A G G K K ! g z.9X{.oXY.Y.W.n.",
"d Y *._ Y Y T M B.}.P.P.S.V.`.D.i J G H H ~ ! u v.tX4XOX'.'.'.C.",
"h ~ %._ _ Y J B c.L.K.[.L.A.{.K.g I J M N R ^ g k.eX3X7X].{.].C.",
"9 M H N K _ Y Y B.}.L.[.L.V.L.b.0 H K / ~ N E q u.4X{.oX).'.W.j.",
"> q u u M _ _ / P.5XL.L.z.4.8.:.* q m ! N q 9 t ` S.v.V.j.v.d.2.",
"O > % O t u 0 r I 3.] %.! h ! N o t t t %   o o t ` ^ ` / ` ! 9 ",
"q q g g ! 9.9.&.b 0 0 y r $ $ $ ` } } ` { g / % o & $ $ o o $   ",
"p.w.u.i.S.1X1XD.*.&.*.3.-.I d q b.I.Y.Y.(.b.g.g r m m M M g d 3 ",
"e.u.C.(.(.L.D.B.M M J Y $.-.-.*.9XtX7XoX3X2X|.%.c B K $.$.I I a ",
"p.I.oX6X{.L.L.0.b G b s Z I $.%.fXyXoXI.'.3X8X3.m K M G P I ..a ",
"I.).Y.F.H.}.P.9.M J J Z G P I J 7XeXoXY.%X0X8X] n b n s Z Z S a ",
"I.oX).(.P.}.5X0.n n b Z A P P J 3XeXoXY.5X8X8XY w b s Z F S S 8 ",
"p.W.W.|.`.J.H.9.T A A v Z A L J 7XeX XY.].5X5X*.7 Z Z F F F S 8 ",
"Y.'.U.|.}.H.P.0.b v b A D L S J 7XeXoX].OX8X8X<.i A C Z F j l j ",
"V.F.|.|.].Y.`.0.b A A S D D J M OX7X.XW.+X7X6X:.7 A S S Z Z L a ",
"D.H.%X|.].Y.`.i.c Z C F A P G M OX7X+XW.+X7X9X*.4 Z F C F Z G a ",
"S.H.|.|.].Y.'.s.b Z C C Z D P M %X7X+X~.&X7X9X*.y C j j F Z G a ",
"L.P.|.|.].`.'.f.Z A C F P X.P M |.qX&X XeX7X9X1.8 C 8 F C Z G d ",
"L.P.|.].].Y.].d.Z Z A D ..O.P m OX7X+X X+XeX9X1.i Z s 8 k G P d ",
"L.P.].].'.Y.{.s.c Z Z D P I P p OX&X+X X3XeX9X3.i Z j C S k P d ",
"P.H.].`.'.E.{.s.b Z Z S S D G h OX7X+X~.7XeX9X3.i Z F F S k L h ",
"P.L.'.`.'.F.].s.Z A S F j A G M %X&X+XW.+X7X9X3.i Z F F S j G k ",
"L.`.].E.'.Y.'.d.Z U A C S Z L M 6X&XOX~.+X+X6X3.a A F S S Z G f ",
"P.`.].F.'.E.{.s.G U D F k Z P h |.7X+XW.+X+X2X3.a A F F S Z G a ",
"P.`.[.E.W.E.`.s.A O.D S Z Z P d OX&X+XW..XOX2X-.s D C C S Z L f ",
"P.`.].F.'.`.`.s.T O.D S A Z P m |.&X+X~..XoX2X3.c P C C S Z G f ",
"L.P.].Y.E.E.`.d.P O.D D D A P m OXqX&X X X.X2X1.d P C F S Z G a ",
"P.`.`.E.'.Y.`.s.U O...D D A P M oXqX:X X X X2X3.c D D S S Z G u ",
"L.`.[.F.W.Y.`.s.T O...D D Z P M |.qX:X X X'.oX1.d P S D D Z A y ",
"L.P.[.J.`.Y.`.f.T O...D D A U M |.eX7X X X'.|.>.s L D D D S Z y ",
"[.`.F.E.H.P.H.f.J O.X...P A U M <XeX7X].'.Y.'.<.f I L L L Z Z i ",
"L.}.P.F.Z.H.P.f.J O.X.O.P A J M oX7X3X].E.Y.`.<.f I L L L Z Z 7 ",
"x.L.P.F.G.H.P.f.G O.X.O.X.J P M <X3X&X'.W.F.'.<.h I L ..L k Z 7 ",
"5.D.`.H.G.P.`.0.G O.P O.O.L U M ).3XOX'.E.C.[.3.h H L ..S S C 7 ",
"7.K.`.E.G.`.P.0.G Y X.$.I L U J [.2XoX'.E.Z.`.3.h I L ..D S Z 8 ",
"z.`.`.F.V.H.[.i.M I X.X.O.J U N _.oX|.].`.J.P.3.a L S ..D C A 8 ",
"S.[.P.G.V.H.`.s.h I X.X.I P Y G `.|.OX].'.G.P.3.p L L L D D A 8 ",
"G.(.Z.V.G.E.L.s.h I I X.U J U M `.|.%X].].G.`.<.s L S ..D D D n ",
"z.{.C.E.Z.Z.].3.p P H X.$.I O.B L.oX%X].'.J.[.3.d A L D D S C 8 ",
"v.`.V.F.Z.Z.[.*.K $.~ X.$.I Y B L.6X7XOX'.G.P.3.d G P ....D A v ",
"C.[.C.Z.G.J.'.<.H @.I I X.J I M S.{.OX].`.J.}.7.d G L L S S C 8 ",
"S.(.C.C.n.J.'.3.g ~ I @.$.I Y M S.].OX|.].E.}.7.G P X.....D Z s ",
"g.Y.F.J.n.J.E.6.G ] $.-.-.Y $.K `.oXoX].%X].5X5.H X.$.o.o.O.U A ",
"i.Z.'.E.J.E.H.3.H ~ I I J M G m S.Y.Y.U.].].6X5.f k l G S S A b ",
":.r.n.a.5.n.a.B r d y y 3 , 4 < 4.w.w.w.a.j.D._ $ 1 5 5 5 5 2 2 ",
"K K ) B x / / <   > : > : $ > $ ! { ( / ) ) 1.< . @ : : : : @ @ ",
"X ; , @ X @ @ X B ] N / ' ( } g % 3 $ % $ , 4   B K B ] T M T 0 ",
"2 - = - b U J 4 1.u.4.i.a.p.h.e.I P i 3 & 4 p < ] 3.5.z.g.g.Z.6.",
";.O.P U O.U G i G.<X{.%X7XOX7X'.*.-.$.$.Y Y &.M s.L.F.}.}.}.%Xn.",
"..O.O.U b 7 0 p L.6X|.6X7X+X7X'.M I _ %.*.*.*.c K.1XP.L.F.P.P.i.",
"C v v v v 8 a p D.}.(.].OX XoXC.h J G J H I T p D.1XD.A.V.D.`.a.",
"D D A A C n i p K.|.(.|.7X7X&XY.K I H I H I / c z.}.A.V.F.F.H.n.",
"8 C C v 8 i i p A.}.`.].OX+X&XY.p J J I K K T w c.}.B.A.L.L.F.g.",
"D D D v v v c i A.1X{.oXOXoX7XY.M I J K H Y _ p z.[.V.B.F.Z.F.B.",
"D C C A b i i p v.[.[.&XOXoXrXY.M J G I K I Y p B.L.A.K.S.G.J.B.",
"A A C C C s i p x.[.[.7X3XOXeX'.M J G K K K / p x.L.V.D.D.A.H.n.",
"Z S C A b s a p A.[.[.%X2X+XrX[.N L G I K ! ~ p z.L.B.G.D.G.P.n.",
"Z C Z Z b n d p A.[.[.OX3X+XrX].M J G K K I I p z.L.A.G.S.G.H.g.",
"C A S A b s d p G.[.'.%X3X&XtX[.M I G K K K T p c.P.D.K.S.D.P.i.",
"C D D Z Z s i p A.{.[.OX3XOXeX'.G K G H K H _ p c.P.D.D.F.S.`.a.",
"C D D A s n p i A.[.[.OX3X3XrXY.H P G K J K _ p z.P.D.D.Z.F.'.j.",
"C S U A b a d a A.[.`.2X6X&XeXY.H K G J K K Y s z.P.V.A.G.F.|.V.",
"C Z Z Z d d d p A.[._.oXoX6XtXb.M Y J J J T ] b z.P.A.S.S.Y.oXC.",
"s C Z Z d d d c K.[.{.2XoX2XtXV.M K B J J Y Y c z.P.D.F.Y.Y.OXI.",
"j s Z Z Z b d m K.[.[.2X{.2XtXV.B T J B J T Y b c.P.K.F.(.).oXI.",
"C C Z A G b b G K.[._.|.{.oX0XZ.B T M J M J Y c z.P.K.(.Y.Y.oXb.",
"C k Z Z Z d Z M K.[.[.|.).{.0XZ.J J M T b G T c z.L.K.Y.Y.Y.oXI.",
"Z j d Z d p c H K.[._.{.).].tXS.B T J J G M Y c c.(.D.F.Y.)..XI.",
"Z j s Z d i d H K.<X).[.Y.[.9XZ.H I J K M M U A z.P.S.F.Y.Y.+XR.",
"S j j s k i M K (.}.{.[.Y.).7XS.B T J J J M Y M x.P.S.Y.Y.'.&XT.",
"Z F Z s s a b H }.[.[.`.(.Y.eXv.c I K P J Z J c x.L.F.(.Y.'.rXY.",
"j k k b d p b M <X[.[.`.).Y.7Xv.h I K J G G J c x.L.D.`.Y. XrXT.",
"Z j C b k s d M <X<X{.{.(.Y.9Xg.h I P K J G J c x.L.K.`.Y.].yXT.",
"Z F d C d d M G <X}.[.(.Y.Y.9XV.d I I P G M J c x.L.K.(.W. XrXR.",
"S Z k s d s M M <X[.{.[.).R.7Xj.m I I P L G J p v.L.Y.`.W..XrXU.",
"S Z j d s c b M _._._.`.).(.9Xj.d I I I G G G c x.L.F.`.E..XyXN.",
"S S k Z Z d d d K.L._.`.).'.7Xv.d I I P J G J p x.L.F.`.W.%XrXN.",
"A Z Z S G k d p D.F.(.(.`.Y.7Xv.p K I I P G J d x.`.Y.E.W.+XrXN.",
"Z Z Z L L k a f B.H.J.J.W.'.9Xj.0 T T T @.H G g K.Y.I.E. XOXeXR.",
"v s j l l k a y B.J.].Q.E.Y.6Xx.m Y T T X.H H g b.(.W.~. XXX-XI.",
"A Z S L ..l k f B.J.J.J.W.'.tXv.c J U Y H h h 9 S.(.R.U.~.,X:Xk.",
"G b G L L k a q B.H.E.Q.E.E.9Xx.M J Y $.I P @.0 (.{.Y.U.Q.;X;XN.",
"Y Y Y $.=.~ I H G.[.OX].[.Y.9Xx.J I I @.h I _ g Y.%X].W.Q.$X$XM.",
"0 r 0 f f z z 9 F.F.Z.J.oX2XtXc.h @.$.-.%.~ ! r F.F.C.Q.&XiX=Xt.",
"$ * $ > t > > % u.4.:.5.Y._.{.%.u ~ _ _ %.^ g & i.5.{ u.F.|.U.W ",
"O O o o O o   o g ! ! ` %.` 4.u O q t o t % *   ! ` ! / / ) ) x ",
"E E ^ :.} g %.g o t > 9 u u r o E p.6.| | |  .q o O . : 1 O O O ",
"{ :.e.p.p.e.b.e.q 9 > f >.8.>.g h.yXiXiX>X$XQ.) o : 1 z f z f z ",
"e.b.R.R.R.C.).w.H >.8.>.@.! _ K Y.dX=X@X=X>XiXJ.g I @.#.,.=.=.G ",
").yXhXhXdXaXfXp.! -.=.$.X.l G 0 W.,X#X#X#X#X*Xn.N $.#.o.#.+.+.k ",
"k.XXrX*X>XqXrX5.N H k L X.X.L 0 ).,XXX,X@X@X>Xt.9 l l l l l ..8 ",
"k..X:X$X$X*XsXp.g ~ #.o...d Z p '.-X~.^.!.!.>XM.q H L l ......C ",
"l.oXrX=X*X*XsXa.g P L o.X.D S p 4XeX^.,X@X!./. .q G l L S C A n ",
"e.T.&X>X>X*XsXa.u P ..X...j k u oX-X~.;X@X#X>Xp.r h S ..D Z A n ",
"k. X+XrX%XsXsXa.p J L ..L G G r W.;X^.^.^.^.*Xm.0 Z Z L ..S S a ",
"k.'.+X7X$XqXwXf.p I I ....l A q W.;X^.^.^.^.&Xj.w M Z D P D D s ",
"k. XOX7X%X%X0Xi.p I I X.P G Z u ~.@X/.^.^./.$Xj.w M Z D D S L k ",
"C.].%X&X].%X0Xi.h I I ..P Z Z w N.;X/.^.^.^.&Xa.e M Z D D S L s ",
"S.oXOX%XW.%X6X9.f I I ..L Z Z r N.@X^.^.^.XX&Xh.e G Z S D S P j ",
"Y.OXOX.XQ.].5X7.h I L ..P S Z 0 C.XX^.^.^.XX&Xh.p M A S D D P k ",
").+XoXOXJ.].%X7.f P X...L A Z y U.@X^.^./.^.:Xh.e M A S D D P k ",
").7X2XOXU.'.%X7.f I P ....D A y R.$X^.^.^.@X&Xh.e J A S D D P k ",
"{.%X&X].W.`.5X7.d I ....L S L y U.;X^.^.^.@X&Xh.p J A A P L L k ",
"].%X6X].E.`.5X7.f I L ....L L i U.$X^.^.^.^.&Xa.e J S S D S L Z ",
"{.OX%X'.E.P.6X7.f L ....P D D w N.$X^.^.^.;X$Xh.e J Z S D D L Z ",
"{.oX|.`.E.H.5X7.d I ....P D D i U.$X^.^.^.;X:Xh.e J Z S D S L Z ",
"{.{.{.Y.H.F.5X7.a P ......D D i m.$X^.^.^.-X&Xh.e T A Z ..F S k ",
"{.{.[.Y.Y.H.5X7.d S ......F D i U.$X^.^.^.@X&Xh.e J A C S k Z k ",
"[.`.Y.Y.H.F.1X8.a ........S D i N.@X^.^.^.;X&Xa.p J Z F S S Z k ",
"(.`.E.Y.H.F.|.7.d P ......D D i N.;X^.;X^.^.&Xp.e J Z Z S Z Z s ",
"(.(.L.F.H.H.}.8.d X...S ..L G i I.$XXX-X^.-X;Xh.q G j Z S Z Z k ",
"L.[.F.Z.H.F.}.5.k X...L ..S Z p I.$X^.XX;X-X:Xp.w G C Z D F A j ",
"L._.S.G.H.F.}.9.h $...L l L Z p U.+X^.XX^.-X&Xh.q G C Z D Z Z d ",
"(.L.S.D.H.F.}.0.k @.L L L k L d U.$XXXXX^.-X&Xg.p J C Z D Z Z a ",
"`.P.S.G.J.J.<X0.d @.L l L G L M T.+X^.^.-XXX:Xh.e J Z Z D k Z k ",
"L.F.V.V.D.D.}.0.d X.I ..L Z L M W.-X^.-X^.;X7Xk.p J C Z P Z Z k ",
"(.F.G.D.J.Z.}.0.h ~ L ..P Z G G  X:X^.XXXXXX:XC.e G F Z D S A k ",
"(.F.V.Z.H.Z.[.9.h @.....I k G M .X:X^.^.XXXXeXZ.e G Z S D S S k ",
"L.F.S.F.Z.J.5X9.M X.X.L L L L N .X:X^.XX^.+XeXC.u d A S D P Z s ",
"`.Z.V.Y.E.G.|.f.p I X.I I I G M  X/./.;X^.XXeXk.h M Z Z S S Z d ",
"(.Z.C.Y.E.Z.|.9.h I X.H P L G N tX,XXX-X~.^.rXC.m b Z F Z S S k ",
"C.Y.Z.n.Z.].8X5.I %.@.o.X.I L M C.^.-X,XuX,XeXC.p b L D D L A d ",
"S.Y.H.F.E.].0X9.H %.-.=.%.=.I G R.dX;X!.,X^. XoXN P P P D D L k ",
"oX(.W..X].n.H.6.u k l f l ~ $./ XXdXl.Q q.q.y.C.p c C j C D P P ",
"F.g.g.n.a. .5.T : 3 + + 3 a d H h.U.y.q.q.q.k.h.< 3 2 2 2 8 C G ",
"! E ^ ) W V | r O 3 3 + 3 > @   } [ Q [ Q Q e.^ $ : ; - = - ; ; "
};
