/* XPM */
static char *result[] = {
/* columns rows colors chars-per-pixel */
"32 160 211 2 ",
"   c #24160B",
".  c #291A0A",
"X  c #321B0D",
"o  c #241512",
"O  c #2C1E14",
"+  c #2B1D19",
"@  c #261815",
"#  c #2F231B",
"$  c #322214",
"%  c #3B2416",
"&  c #3E2A13",
"*  c #33251E",
"=  c #342A1E",
"-  c #3C2A1A",
";  c #3E2719",
":  c #2F2422",
">  c #332624",
",  c #352B23",
"<  c #3A2B23",
"1  c #3B2D2A",
"2  c #342828",
"3  c #3C3125",
"4  c #3D332A",
"5  c #402B15",
"6  c #422C1B",
"7  c #46321F",
"8  c #402E24",
"9  c #443224",
"0  c #493625",
"q  c #4B3927",
"w  c #43352C",
"e  c #4A3729",
"r  c #43392E",
"t  c #4D3B2C",
"y  c #513C2B",
"u  c #443532",
"i  c #453B32",
"p  c #4C3D33",
"a  c #493C3A",
"s  c #453A38",
"d  c #523E31",
"f  c #503F38",
"g  c #4F4029",
"h  c #54432E",
"j  c #4D4136",
"k  c #4E423A",
"l  c #534235",
"z  c #5A4436",
"x  c #5C4A36",
"c  c #54443B",
"v  c #5B4639",
"b  c #56493E",
"n  c #5D4B3C",
"m  c #624C3E",
"M  c #63523D",
"N  c #6A573F",
"B  c #4D4141",
"V  c #534542",
"C  c #564A44",
"Z  c #5B4C43",
"A  c #5B4C49",
"S  c #584945",
"D  c #5D5145",
"F  c #5E534A",
"G  c #634E42",
"H  c #624F4A",
"J  c #645243",
"K  c #6A5544",
"L  c #6C5A45",
"P  c #64544B",
"I  c #6A564A",
"U  c #665A4D",
"Y  c #6C5A4C",
"T  c #725C47",
"R  c #725C4C",
"E  c #785E4D",
"W  c #635552",
"Q  c #655B52",
"!  c #6C5C53",
"~  c #6A5753",
"^  c #735E52",
"/  c #775F5A",
"(  c #6F604D",
")  c #74614D",
"_  c #79644F",
"`  c #7A694F",
"'  c #6D6153",
"]  c #756354",
"[  c #7A6554",
"{  c #7C6955",
"}  c #75645A",
"|  c #7B655A",
" . c #766A5C",
".. c #7D6A5C",
"X. c #776A57",
"o. c #7D705F",
"O. c #7D6661",
"+. c #7D6C62",
"@. c #7F6C68",
"#. c #7E7166",
"$. c #7F7168",
"%. c #846A4F",
"&. c #816754",
"*. c #836A55",
"=. c #896B56",
"-. c #836659",
";. c #826C5C",
":. c #8A6E5C",
">. c #8B7256",
",. c #85715E",
"<. c #8C735D",
"1. c #8E795F",
"2. c #877257",
"3. c #91755D",
"4. c #937A5E",
"5. c #836E62",
"6. c #8A6E63",
"7. c #857263",
"8. c #8B7464",
"9. c #8D7A64",
"0. c #86756A",
"q. c #8B766A",
"w. c #877B6D",
"e. c #8D7A6C",
"r. c #877861",
"t. c #927663",
"y. c #947B64",
"u. c #997E65",
"i. c #92766B",
"p. c #937C6B",
"a. c #997E6A",
"s. c #8B7670",
"d. c #867A71",
"f. c #8D7C72",
"g. c #937E71",
"h. c #997F71",
"j. c #8F8068",
"k. c #9B8166",
"l. c #988867",
"z. c #95826C",
"x. c #9B836C",
"c. c #97896F",
"v. c #9D8A6D",
"b. c #8F8176",
"n. c #958273",
"m. c #9A8573",
"M. c #9D8974",
"N. c #938379",
"B. c #9C8679",
"V. c #9D8A7B",
"C. c #978A7B",
"Z. c #9E9076",
"A. c #A1866D",
"S. c #A2896E",
"D. c #A18671",
"F. c #A28C74",
"G. c #A88E75",
"H. c #A18779",
"J. c #A38D7B",
"K. c #A98D7C",
"L. c #A59174",
"P. c #A99275",
"I. c #A89877",
"U. c #A5927C",
"Y. c #AB947C",
"T. c #AE9A7C",
"R. c #A7987B",
"E. c #B19B7D",
"W. c #9E8B81",
"Q. c #A38E81",
"!. c #A69383",
"~. c #AA9583",
"^. c #A69884",
"/. c #AD9A84",
"(. c #A79389",
"). c #AB9689",
"_. c #AD9B8B",
"`. c #B39C84",
"'. c #B19D8B",
"]. c #B99F8B",
"[. c #B89E85",
"{. c #AD9D91",
"}. c #B49E90",
"|. c #ADA08D",
" X c #B3A184",
".X c #B9A286",
"XX c #B4A28C",
"oX c #BAA48C",
"OX c #BBA98D",
"+X c #B8A98B",
"@X c #B6A491",
"#X c #BAA692",
"$X c #BCAB93",
"%X c #BEAD9C",
"&X c #B6A695",
"*X c #C1A88D",
"=X c #C1A68B",
"-X c #C4AC95",
";X c #C1AE9B",
":X c #C9AF9E",
">X c #C5B29D",
",X c #CBB39E",
"<X c #C6B197",
"1X c #C2B2A1",
"2X c #CBB5A3",
"3X c #CCBAA2",
"4X c #C9B8A8",
"5X c #D4BDAB",
"6X c #CFBFB0",
"7X c #D3C1AC",
"8X c #D1C0B0",
/* pixels */
"y 7 y K _ R Y m e z m z x M M x n Z n z h l d j n v P < < u u u ",
") N [ t.i.i.z.q.K ^ p.[ [ 9.z.r.e.e.f.r.o...,.7.5.0.q.c Z ~ H / ",
"T N :.D.B.H.~.H.K R ~.:.9.n.U.U.V.!.V.b...X.X...#.e.q.w V H H ~ ",
"E ) m.oX'.}.;X}.5...;X@X#X$X>X7X%X>X%X^.j.o.,.,.,.C.e.9 H / W O.",
"T _ m./.!./.}.~.R I K.!.V./.U.>X^._./.n.,.{ X.{ 2.J.n.9 ^ 5./ O.",
"T [ :.8.6.8.i.6.G [ m.e.r.R.M._.U.~.U.z.9.1.,.2.2.V.e.- / q.5.^ ",
"=.y.9.8.p.p.q.q.m 5.J.r.n.U.U.XX@XXX!.V.c.c.c.z.U.|.J.9 7.!.B.5.",
"{ 9.8.;.h.h.8.8.y | B.r./.n.V.+X@X'.U.c.M.U.U.M././.M.- ..!.V...",
"{ y.8.;.m.i...q.R ^ m.J.U.J.U./.oXOXH.c.U.F.F.M.T.U.F.& { ~.m.;.",
"*.p.<.,.a.i.*.e.Y ^ V.K.R.V.U./.@X$XH.z.L.L.v.M.U.R.v.& { ~.m.;.",
"*.y.8.,.p.8...q.K ^ J.~.^.U.U.R.].XXc.u.V.F.v.v.F.L.z.& { U.n.*.",
"*.y.9.,.8.;...q.G ^ K.~.^.U.V.M.~./.z.9.M.M.F.M.v.L.z.5 [ F.n.{ ",
"..9.y.;.7.&.| 8.m R !.~.~.H.M.z.K.~.p.9.m.M.F.F.v.U.y.& _ c.p.[ ",
"*.9.8.8.*.[ | 8.v ] ~.!.U.M.m.e.J.).z.9.m.x.c.F.c.F.9.& _ p.p.[ ",
";.9.p.8...E | 8.m [ ~.~.J.m.z.r.B.~.h.i.x.p.x.m.x.K.1.5 [ p.z.[ ",
"<.y.p.y...E ..8.m ..'.~.U.c.n.r.z.K.p.9.z.9.u.x.D.R.t.6 { p.B.*.",
"a.p.m.9.*.R 7.9.J | ~./.!.e.e.,.N.m.C.u.>.1.k.k.v.D.i.6 [ m.m.<.",
"x.m.m.8.;._ 8.i.J [ ~.~.V.r.q.;.n.m.m.y.>.>.k.k.D.F.i.; R p.c.9.",
"m.H.H.<.y...q.z.N E /.!.n.r.q.5.m.m.c.y.4.4.u.u.D.K.a.% L r.m.n.",
"B.U.B.8.a.,.8.M.I E _.~.r.;.7.0.n.m.z.9.4.4.4.4.A.J.h.% K 8.M.M.",
"x.L.D.8.B.i.z.J.L R '.Q.7...r.r.n.V.z.1.y.4.1.4.A.F.p.% K 8.m.z.",
"M.H.m.y.M.x.M.U.R K }.J.;...7.q.n.V.z.1.k.4.>.4.A.H.i.% R 9.n.z.",
"M.m.B.u.H.x.H.H.T K _.H.| ..7.r.z.V.c.<.k.4.%.1.a.K.i.; I 9.z.z.",
"H.x.M.z.B.m.U.B.T m _.B.] +.5.7.e.V.x.8.4.>.%.4.D.H.a.; K r.z.9.",
"M.y.x.x.m.Y.M.z.m L ~.8.] 5.5.5.n.m.M.9.4.4.>.3.D.K.h.X K i.e.z.",
"v.z.z.x.F.U.m.M.G R !.6.] 5.+.5.g.z.c.1.4.k.>.3.A.H.h.X K t.z.c.",
"v.y.z.z.J.F.p.~.K I H.5.] +.5.5.g.n.x.y.k.k.4.u.h.K.a.X K 9.z.n.",
"u.u.y.z.Y.M.i./.K Y h.5.^ ..5.0.n.n.v.4.l.S.4.u.A.K.h.X m r.z.M.",
"z.y.4.z.G.x.r.~.K K i.;.} ..q.s.n.C.M.y.l.P.k.u.a.J.a.. m y.z.m.",
"z.9.y.x.F.z.8.M.K J q.5.....f.g.B.n.c.y.A.P.k.u.a.K.h.X K p.n.M.",
"k.1.x.x.v.z.8.p.J J 7.5.+.O.g.f.n.m.x.9.A.P.A.a.D.K.m.X K M.V.c.",
"l.1.v.D.v.x.9.8.G K 5.q.5.+.f.g.m.x.c.j.S.Y.A.A.D.~.m.X R V.F.M.",
"k.4.S.S.A.k.y.B.R G s.@.0.s.q.N.V.v.z.c.U.F.c.B.z.J.V.. Y ^.Z.Z.",
"S.4.S.S.P.F.z.M.G Z s.s.s.s.r.z.Z.M.l.z.J.Z.M.C.V.~.U.. Y ^.V.V.",
"A.4.l.S.P.L.z.z.n G s.s.N.f.f.n.J.!.V.n.V.V.C.e.g.C.n.$ ( R.C.c.",
"P.l.S.P.T.I.z.0.G Z 5.@.@. ... .r.e.r.X. ...] P D Y ! . ] |.V.c.",
"E.F.P.R. X/.z.r.H f A V V p p p l C l w w r , # = < w   X.|.^.C.",
"F.k.l.l.v.c.o.X.c u u 1 4 < 4 3 3 u 1 * < > + o < < <   U V.Z.j.",
"{ ) { ` { ` N n u 1 w 1 4 , r w 4 u 1 1 1 2 : : < , <   x o.X.X.",
"L M ( N N ( x x % * < 2 1 # , # > > > > > + o @ @ $ *   j ( U U ",
"z.r.( z.1.l.,.o.@.A a B a s i s 4 B 2 2 2 2 2 2 4 u p t U j.w.e.",
">X+Xv.<X$X3X%X&X{.0.! W W W W P W Q B A A B B V S A P U b.>X1X1X",
"3X#XZ.$X+X$XXX^.{.w.~ W W P F A C F k C A A A A V b D ' C.%X%X>X",
"-X~.j.T.I.I.l.2.e.! Z S V a p r B C 4 V V A C A P H Y +.!.%X#X#X",
"].H.y.`.E.E.v.1.;.^ P W S c c p C D i C Z S f c c c G ^ p.!.J./.",
"!.a.t.T.E.T.I.l.8.../ ~ H S S S n D j b S Z c l Z G K ^ e.U.U.^.",
"Y.u.4.E.=XE.P.z.8...} ^ H H G c U U c U Y Y P P G J ^ ] p.K.M.M.",
"Y.j.y.T.OXE.T.M.y.5.5.+./ ~ P m ( ' n Y ^ ^ I I K T { ;.M.[.U.M.",
"U.z.1. X+X$X XZ.j.p.8.e.5.5.^ Y ,.o.Y q.,.;.I -.E =.<.9.$X/.V.C.",
"V.j.,.XX+X+X|.Z.M.m.z.C.h.e.;...c.z.[ c.p.i.-.i.6.u.y.u.XXU.j.C.",
"c.j.r.+X$X+X XR.Z.C.z.!.V.h.5.0.M.Z...C.h.i.6.h.a.D.x.u.`.F.z.V.",
"z.j.j.+X$X$X+X^.R.n.p.!.B.e.+.8.M.c.X.M.i.i.t.h.a.D.A.v./.C.n.V.",
"j.j.j.+X+X$X+X^.T.M.n./.B.q.| r.M.c.{ !.g.q.i.h.m.D.G.m.R.n.f.n.",
"w.j.j.$X$X%X+X X^.F.n.!.B.6.| 5.M.M.{ ~.h.6.h.h.a.a.G.M.!.p.e.w.",
"w.j.j.&X$X$X&X^.~.V.n.U.s.5.^ ..M.c.[ ~.i.5.i.h.t.t.x.x.K.p.q.0.",
"w.j.j.&X%X$X&XR.R.V.n.H.e.5.] | M.c.) ~.i.5.h.h.8.<.c.c.J.w.q.5.",
"o.j.n.|.@X#XXX^./.U.C.z.q.;.| *.z.z.{ M.8.q.i.p.8.y.p.c.h.+.5.+.",
",.w.b.@X&X@X/.V.U.V.n.z.8...| ;.j.z.{ V.8.6.7.5.;.t.i.x.i.| ..} ",
"7.e.j.|.@X@XU.C.V.n.n.z.5.[ | ;.9.y._ M.7.5.5...;.e.p.c.i.| O./ ",
"#.e.f.|.+X|.V.j.z.j.p.e.;.R [ 7.9.y.[ M.6.6.5.-.;.y.y.p.q.O.O./ ",
"..w.e._.|._.C.r.r.e.z.e...^ [ 8.z.j._ x.5.5.5.;.;.9.,.9.7.| O./ ",
"..w.w.|.|./.c.,.r.z.n.p.5.[ | 8.x.k.) x.*.....| ;.8.,.q.5.O.5.O.",
"..0.0._._.^.n.,.r.z.n.n.8.[ | 8.x.j.) p.| ....] ;.p.p.p.6.| 5.O.",
"..0.0.^._._.n.,.q.e.z.n.5.[ [ 5.z.y.) p...5...[ [ p.m.p.;.^ O.O.",
"0.0.0.{.{.!.N.7.7.f.g.e.5.X.} 7.j.r.K e.r.,. ...+.5.(.7.O.s./ O.",
"0.0.s.{.).^.N.7.7.e.g.e.7.] ] ;.N.j.K j.7...} | | q.W.5.O.s./ O.",
"+.0.0.{.{.(.m.7.+.e.g.e.8.| [ 5.b.0.J e.#. .[ ..+.g.g.5.0.7./ 5.",
"..@.0.{.{.!.B.w...e.h.q.8.;...q.,.o.J w.;.[ X...5.Q.5.5.s.5.O.O.",
"X.;.7._.).).Q.g.5.e.p.p.8.8.*.5.X.[ P n.5.] ] 6.5.W.O.| i.6.-./ ",
"] ..7.).^.(.H.g.7.p.p.i.8.8.;.*.[ | I m.q.^ ^ 5.g.h./ ;.s.s.5./ ",
"] ..5.!.Q.K.B.p.5.t.8.8.i.9.;.[ ..| J N.q.| / 5.h.s.| 5.h.g.6.-.",
"] ....W.Q.B.m.e.*.8.5.8.y.i.:...5.| G N.q.O.| 5.h.6.| 6.h.h.s.5.",
"] 0...V.n.g.m.7.[ 5.6.8.8.i.8.p.5.+.H q.7.O.^ 7.B.g.| 5.B.B.q.6.",
"..7. .N.p.7.e.| [ ..5.8.8.p.m.p.| | W g.s.5.~ 5.B.s.| 6.Q.B.s.0.",
"O...' n.w.7.q...I X.q.e.q.m.m.5.! } W f.s.O./ O.N.f...7.W.Q.q.6.",
"0.+.! f.0.+.@...I ] e.e.q.n.V.| ! ^ P 5.+.} } @.g.f.5.0.W.B.q.5.",
"N.0.+.b.0.+. . .+.7.f.0...B.!.e.! O.! @.$.+.+.$.C.W.N.N.).(.g.w.",
"Q Z C ! S Z c f l V J Z Z } | A i c p S P C b S } ..] ' +.+.Y K ",
"C V b A k b p c r c D D I ! I c i a r b A c k p P ' U P ] ! D D ",
"j j k c w p w w t v x c M P n p < 4 < w j r w w c J n b n n l z ",
";.q.n.@.+.w.#.J ;.c.D.D.~.'.h.d f Z n P J I J 9 Y g.e.e.r.z.z.j.",
"oX].'.@X@X_.R.r.G.`.E.[.].-X~.d H | O.5.e.N.e.x r._./.|.'.XX/./.",
"'.~.J.%X1X^.Z.,.E.[.=X=X].:X).e ^ 7.q.q.N.!.h.v ) !.U.!./._.U./.",
"-X@X).8X8X!.V.o.`.[.-X<X-X5X}.e ^ | } / 5.p.7.t ) /.~.^.+X_.!.+X",
":X;X'.4X%XC.z.) E.[.=X=X].:X'.t ^ ^ Y ^ 5.p.6.d ] '.U.U._.`.U.oX",
"H.H.q.e.7.' ] M K.Y.Y.G.H.`.m.e 5.;.^ 5.q.h.5.m K m.8.8.i.m.z.F.",
"i.8.[ X.' ( ] Y `.[.Y.G.K.~.g.p q.q.....q.h.8.d R z.8.8.r.x.m.J.",
"p.;...} } X.' ) `.[.Y.K.`._.q.d q.p.| | 8.B.i.m Y 8.,.8.,.p.m.M.",
"M.q.] '  .o.X.` [.oXY.F.K.K.r.c g.m.5.5.8.q.q.m K p.7.;.;.i.B.p.",
"*.7.7.]  .' ( ] XXXXG.A.K.U.8.p g.g...;.8.q.8.m R m.,.,.*.e.V.p.",
"J ] #.]  .U ] X.oX[.A.v.M.H.0.p p.h.-...6.p.q.z R m.8.5...q.B.h.",
"L Y ] ' #.' ( ( '.`.x.p.p.N.7.d p.h...-.5.e.q.m R h.8.8...8.g.p.",
"q.] Y ! #.' P ( '.R.x.y.9.z.0.d i.N.*.[ ;.t.i.z I h.g.h.5.8.i.p.",
"h...! ]  .' D ( /.F.x.9.,.i.q.p q.m.;...*.8.8.z K m.h.B.q.8.h.p.",
"q.r.! ] '  .U ' `.M.1.<.,.g.q.t 8.m.6.[ | 5.8.m J m.N.H.q.8.p.g.",
"8.z.' ' U r.Y J XXx.<.,.8.B.e.9 8.m.8.[ [ *.8.v G h.m.B.8.5.e.p.",
"7.e.] X.) [ K X./.p.7.*.5.H.8.e 8.m.9.[ .. .7.x J q.g.B.6.;.;.i.",
"p.e.) ) [ { R [ ~.8.;.;.q.B.8.y 6.H.i.R | | 7.v G q.g.B.6.;.-.t.",
"z.9.[ T <.;.[ ) !.;.;.[ h.h.0.e ,.J.n._ X.[ ;.l G 7.e.m.8.-.:.i.",
"9.8.,.T 9.;...R !.[ ;...B.p.8.y 8.U.B.[ [ } 7.l n 7.q.n.6.-.:.6.",
"t.9.t.K 9.*.;.[ Y...;.;.B.p.8.y :.K.B.{ ....7.l n 5.7.h.8.:.:.8.",
"y.p.t.K ,.[ 7.*.~.;.;.,.m.m.7.y ,.J.c.;.;.{ ;.l n 5.7.h.i.6.:.t.",
"z.x.p.T <.;.,.;.J.;.*.7.p.B.8.q 8.B.p.;.7. ...l n ..8.m.i.t.8.t.",
"p.D.x.{ y.y.8.*.J.;...r.i.J.8.y 9.m.i.,.7.[ [ p n 7.,.m.p.t.t.t.",
"A.u.t.a.D.a.:.&.K.6.,.,.p.V.p.y 8.J.n.{ ] X.,.t n 7.7.x.x.u.<.t.",
"a.t.t.x.h.a.3.-.K.:.8.9.z.H.p.y 9.J.m.*.[ } 7.h n 7.<.z.p.k.t.y.",
"a.t.t.a.G.h.:.&.J.,.y.t.m.J.z.y y.K.B.;... .#.t m ,.;.z.v.M.u.u.",
"a.u.y.a.h.a.3.&.F.9.z.i.c.J.x.y e.Q.m.;...[ ,.t M ,.;.j.x.D.k.u.",
"u.t.u.u.a.a.:.&.K.y.m.9.m.K.M.y i.K.m.;... .,.t J r.,.y.x.F.a.4.",
"3.t.u.a.a.a.:.-.J.y.z.8.z.!.M.y i.U.C.....5.7.t J r.,.y.x.F.u.4.",
"3.t.a.a.a.u.:.=.F.t.a.<.z./.B.q e.K.m.[ ....7.h m r.<.z.A.S.u.3.",
"t.a.a.a.u.u.3.=.D.t.u.8.x./.C.0 8.H.h.[ | ..r.l m 8.1.a.k.S.u.4.",
"=.a.G.a.u.A.=.=.S.<.4.<.B.`.M.y 7.J.q.^ [ 7.5.d J 6.,.D.A.D.a.u.",
">.y.A.a.3.u.>.=.A.<.1.;.z.R.C.t [ a.5.T R  .5.d G 6.8.B.a.x.t.:.",
"9.<.D.a.t.a.t.=.x.:.p.e.m._.W.w ^ g.;.~ Y } ..j G e.n.M.x.c.u.=.",
"5.;.D.H.a.h.6.E t.[ i.e.m.).B.< I 5.^ I U F ' j C 0.e.n.r.y.9.&.",
"h.q.Q.~.h.Q.h.5.m.5.h.B.(.&XW.p P } U Q Q U F 4 F j.w.w.5.,.,.) ",
"P Z ^ / R E I G ^ G I I O.0.O.2 D Q Z P Q F F 4 i ( P D j l g 0 ",
"8 8 d c d m y y z y y p J G b < r f w s i 4 i # j Q n b t t w 9 ",
"O $ e y d y 6 e y 0 e e Z l t < = w * < , O * . 3 k w t 9 9 - - ",
"y 9 X.n.M.C.9.9.<.,.8.r.n.!.n.I H H ~ V c c p t b ( Y I m m y d ",
"..M b.+XOXOX`.T./.Y./.oX%X3X+Xe.5.5.i.O.5.5.| Y r.C.i.i.5.6.-.=.",
"r.h r.$XXX`.Y.F.P.v.L..XOX$X/.z.s.i.h.5.g.B.n.,.e.!.B.h.i.i.-.:.",
"z.g r.5X>X-X.XR.E.P.P..X<X*X+X/.Q.Q.H.^ h.Q.J.p.z. XY.`.K.K.t.t.",
"M.q 8.8X,X-XOX[.`.Y.[.-X,X-XoX$X(.(.h.I y.c.x.y.9.L.A.S.a.a.=.=.",
"C.7 Y '.T.M.x.4.<.3.u.K.`.D.a.J.h.h.i.m j.c.M.1.S.T.S.S.a.G.3.t.",
"^.t ] ].Y.p.,.=.&.=.t.x.D.y.9.D.m.i.t.m Z.I.I.v.I. XS.v.A.G.u.3.",
"V.l ] }.`.M.t.<.=.3.3.t.a.8.t.!.K.p.:.y Z.I.I.l.T.+XP.S.G.G.3.3.",
"!.l Y U.Y.x.t.3.*.:.8.y.K.B.8.h.Q.N.;.n M.U..Xv. XoXI.P.E.G.3.u.",
"V.l R R.K.c.1.3.=.<.y.y.K.B.7.B.V.n.5.x M.I.XXM..X.XE.G.Y.A.4.4.",
"C.l Y U.Y.x.1.4.=.4.y.i.H.g.5.h.N.e.+.x H.R.[.G.E.E.E.P.A.A.u.3.",
"C.g ) U.J.a.<.4.>.t.p.y.B.g.5.g.h.0.;.x J.U.Y.F.Y.T.T.G.u.A.a.u.",
"C.y Y ~.U.z.<.4.3.a.a.8.h.p.O.g.e.5.;.x J.F.v.F.G.G.Y.F.u.a.A.A.",
"V.q L U.U.k.<.u.y.x.a.8.h.q.| g.q.5...v J.M.z.D.S.G.L.v.k.u.u.A.",
"V.t J U.U.x.<.u.y.x.y.:.i.i.| s.8.....v J.M.9.H.a.A.x.x.A.u.4.G.",
"J.q M Z.J.k.<.u.u.a.t.;.8.8.| q.;. .;.v !.V.8.G.3.u.t.u.S.y.3.Y.",
"!.0 L m.Y.u.y.u.u.x.t.*.5.8.;.5.8.|  .m m.U.z.m.3.=.=.t.S.k.u.G.",
"V.0 J z.U.x.u.u.u.A.t.&.8.5.5.5.5.....m H.~.p.i.:.*.=.u.A.k.u.S.",
"V.0 M z.J.c.u.x.u.D.y.-.5.6.;.5.;... .J J./.p.q.;._ %.4.k.u.u.A.",
"C.q J z.H.A.x.A.a.D.y.;.8.6.O.;.8.....G Q._.p.6.-.E %.u.A.u.u.A.",
"n.q M c.m.F.A.A.a.D.p.;.8.8.| 5.5.....x H.).h.q.-.E &.y.a.u.u.k.",
"b.q M M.c.U.A.A.A.D.y.:.8.8.5.;.q.5...n C.(.h.q.;.E -.a.u.u.u.u.",
"e.t J z.z.F.a.A.u.D.p.:.8.q.5.;.q.7.5.n B.Q.h.q.-.E ;.x.a.3.u.3.",
"e.t M M.y.G.u.a.a.F.a.;.8.6.;.5.q.r.7.n h.Q.q.8.6.E *.a.t.3.u.3.",
"e.t Z J.M.x.u.<.u.U.x.;.r.7...0.n.w.7.J N.V.n.5.8.E -.h.:.:.a.3.",
"w.g J J.C.m.9.,.u.H.m.q.7.7.+.r.e.N.7.n n.C.8.8.6.E -.a.t.t.a.:.",
"w.t G Q.m.m.8.;.t.B.H.n.r.5.5.7.e.C.7.l n.B.7.8.8.R -.a.6.3.a.=.",
"e.t n H.m.h.<.:.t.m.U.H.8...5.+.f.w. .c n.N.5.8.=.[ :.a.t.3.t.:.",
"h.d G H.h.p.8.6.i.x.!.H.8.| +.7.B./ Y J n.p.r.8.-.;.t.a.3.3.t.3.",
"W.c G J.m.h.8.9.t.h.H.H.q.} ..s.W.G H U N.i.q.;.&.,.A.A.t.3.4.4.",
"W.d G Q.H.h.t.i.q.h.g.p.7.| O.g.N.P P I V.e.5.*.&.y.D.D.u.u.u.4.",
"g.d H Q.H.m.i.p.8.m.h.q.q.| | W.f.! I P Q.e...;.;.y.H.A.A.u.u.4.",
"f.u I B.B.g.B.i.q.g.g.;.0. .O.C.O.0.} A ^.b.j.o.o.F.M.z.m.x.u.z.",
"s.w P Q.W.m.p.5.8.h.g.O.w.+.$.N.+.d.+.U W.d.b.j.o.V.M.9.x.z.<.9.",
"g.f ~ W.C.g.p.r.7.n.e.} $.+.#.$.#.$.^ ! |.W.C.b.N.~.J.z.C.M.z.z.",
"O.w P N.n.w.w.e.f.n.g.} $.$.$.$.} ' D U Z.w.#.o.r.f.r.#.r.e.#.o.",
"B , U W.C.b.w.w.f.n.f.} $.d.b.$.b F b F X.j j b k l l j b b j t ",
"i , F w.$.+...o. .} ' Z U ' } Q k b j b C 3 = , 4 4 4 4 w r 4 , ",
"i : j D C b b l b j l 3 4 i j 3 j j = r j r 4 4 k i k s r i u 4 ",
"4 = i k j C j r t 9 i 3 4 4 k 3 , 4 # = 3 = 3 i j i 4 4 , , < , "
};
